<?xml version="1.0" encoding="utf-8" standalone="no"?>
<!DOCTYPE svg PUBLIC "-//W3C//DTD SVG 1.1//EN"
  "http://www.w3.org/Graphics/SVG/1.1/DTD/svg11.dtd">
<svg xmlns:xlink="http://www.w3.org/1999/xlink" width="906.419886pt" height="391.468414pt" viewBox="0 0 906.419886 391.468414" xmlns="http://www.w3.org/2000/svg" version="1.1">
 <metadata>
  <rdf:RDF xmlns:dc="http://purl.org/dc/elements/1.1/" xmlns:cc="http://creativecommons.org/ns#" xmlns:rdf="http://www.w3.org/1999/02/22-rdf-syntax-ns#">
   <cc:Work>
    <dc:type rdf:resource="http://purl.org/dc/dcmitype/StillImage"/>
    <dc:date>2026-05-28T16:13:35.210491</dc:date>
    <dc:format>image/svg+xml</dc:format>
    <dc:creator>
     <cc:Agent>
      <dc:title>Matplotlib v3.10.9, https://matplotlib.org/</dc:title>
     </cc:Agent>
    </dc:creator>
   </cc:Work>
  </rdf:RDF>
 </metadata>
 <defs>
  <style type="text/css">*{stroke-linejoin: round; stroke-linecap: butt}</style>
 </defs>
 <g id="figure_1">
  <g id="patch_1">
   <path d="M 0 391.468414 
L 906.419886 391.468414 
L 906.419886 -0 
L 0 -0 
z
" style="fill: #ffffff"/>
  </g>
  <g id="axes_1">
   <g id="patch_2">
    <path d="M 50.14375 343.04992 
L 436.619886 343.04992 
L 436.619886 54.6 
L 50.14375 54.6 
z
" style="fill: #ffffff"/>
   </g>
   <g id="patch_3">
    <path d="M 67.710847 3408.16911 
L 86.202528 3408.16911 
L 86.202528 148.852971 
L 67.710847 148.852971 
z
" clip-path="url(#pc85fa0641b)" style="fill: #e74c3c; stroke: #000000; stroke-width: 1.6; stroke-linejoin: miter"/>
   </g>
   <g id="patch_4">
    <path d="M 160.169253 3408.16911 
L 178.660934 3408.16911 
L 178.660934 140.592145 
L 160.169253 140.592145 
z
" clip-path="url(#pc85fa0641b)" style="fill: #e74c3c; stroke: #ffffff; stroke-width: 0.5; stroke-linejoin: miter"/>
   </g>
   <g id="patch_5">
    <path d="M 252.627659 3408.16911 
L 271.11934 3408.16911 
L 271.11934 163.132009 
L 252.627659 163.132009 
z
" clip-path="url(#pc85fa0641b)" style="fill: #e74c3c; stroke: #ffffff; stroke-width: 0.5; stroke-linejoin: miter"/>
   </g>
   <g id="patch_6">
    <path d="M 345.086065 3408.16911 
L 363.577746 3408.16911 
L 363.577746 275.521466 
L 345.086065 275.521466 
z
" clip-path="url(#pc85fa0641b)" style="fill: #e74c3c; stroke: #ffffff; stroke-width: 0.5; stroke-linejoin: miter"/>
   </g>
   <g id="patch_7">
    <path d="M 86.202528 3408.16911 
L 104.694209 3408.16911 
L 104.694209 177.512355 
L 86.202528 177.512355 
z
" clip-path="url(#pc85fa0641b)" style="fill: #f39c12; stroke: #ffffff; stroke-width: 0.5; stroke-linejoin: miter"/>
   </g>
   <g id="patch_8">
    <path d="M 178.660934 3408.16911 
L 197.152615 3408.16911 
L 197.152615 88.598987 
L 178.660934 88.598987 
z
" clip-path="url(#pc85fa0641b)" style="fill: #f39c12; stroke: #000000; stroke-width: 1.6; stroke-linejoin: miter"/>
   </g>
   <g id="patch_9">
    <path d="M 271.11934 3408.16911 
L 289.611021 3408.16911 
L 289.611021 164.518815 
L 271.11934 164.518815 
z
" clip-path="url(#pc85fa0641b)" style="fill: #f39c12; stroke: #ffffff; stroke-width: 0.5; stroke-linejoin: miter"/>
   </g>
   <g id="patch_10">
    <path d="M 363.577746 3408.16911 
L 382.069427 3408.16911 
L 382.069427 246.623561 
L 363.577746 246.623561 
z
" clip-path="url(#pc85fa0641b)" style="fill: #f39c12; stroke: #ffffff; stroke-width: 0.5; stroke-linejoin: miter"/>
   </g>
   <g id="patch_11">
    <path d="M 104.694209 3408.16911 
L 123.185891 3408.16911 
L 123.185891 178.0453 
L 104.694209 178.0453 
z
" clip-path="url(#pc85fa0641b)" style="fill: #9b59b6; stroke: #ffffff; stroke-width: 0.5; stroke-linejoin: miter"/>
   </g>
   <g id="patch_12">
    <path d="M 197.152615 3408.16911 
L 215.644296 3408.16911 
L 215.644296 140.656639 
L 197.152615 140.656639 
z
" clip-path="url(#pc85fa0641b)" style="fill: #9b59b6; stroke: #ffffff; stroke-width: 0.5; stroke-linejoin: miter"/>
   </g>
   <g id="patch_13">
    <path d="M 289.611021 3408.16911 
L 308.102702 3408.16911 
L 308.102702 104.906108 
L 289.611021 104.906108 
z
" clip-path="url(#pc85fa0641b)" style="fill: #9b59b6; stroke: #000000; stroke-width: 1.6; stroke-linejoin: miter"/>
   </g>
   <g id="patch_14">
    <path d="M 382.069427 3408.16911 
L 400.561108 3408.16911 
L 400.561108 226.868798 
L 382.069427 226.868798 
z
" clip-path="url(#pc85fa0641b)" style="fill: #9b59b6; stroke: #ffffff; stroke-width: 0.5; stroke-linejoin: miter"/>
   </g>
   <g id="patch_15">
    <path d="M 123.185891 3408.16911 
L 141.677572 3408.16911 
L 141.677572 326.050427 
L 123.185891 326.050427 
z
" clip-path="url(#pc85fa0641b)" style="fill: #3498db; stroke: #ffffff; stroke-width: 0.5; stroke-linejoin: miter"/>
   </g>
   <g id="patch_16">
    <path d="M 215.644296 3408.16911 
L 234.135978 3408.16911 
L 234.135978 239.181017 
L 215.644296 239.181017 
z
" clip-path="url(#pc85fa0641b)" style="fill: #3498db; stroke: #ffffff; stroke-width: 0.5; stroke-linejoin: miter"/>
   </g>
   <g id="patch_17">
    <path d="M 308.102702 3408.16911 
L 326.594383 3408.16911 
L 326.594383 277.064183 
L 308.102702 277.064183 
z
" clip-path="url(#pc85fa0641b)" style="fill: #3498db; stroke: #ffffff; stroke-width: 0.5; stroke-linejoin: miter"/>
   </g>
   <g id="patch_18">
    <path d="M 400.561108 3408.16911 
L 419.052789 3408.16911 
L 419.052789 141.704094 
L 400.561108 141.704094 
z
" clip-path="url(#pc85fa0641b)" style="fill: #3498db; stroke: #000000; stroke-width: 1.6; stroke-linejoin: miter"/>
   </g>
   <g id="matplotlib.axis_1">
    <g id="xtick_1">
     <g id="line2d_1">
      <defs>
       <path id="m7082f07b1a" d="M 0 0 
L 0 3.5 
" style="stroke: #000000; stroke-width: 0.8"/>
      </defs>
      <g>
       <use xlink:href="#m7082f07b1a" x="104.694209" y="343.04992" style="stroke: #000000; stroke-width: 0.8"/>
      </g>
     </g>
     <g id="text_1">
      <!-- probe -->
      <g transform="translate(90.266866 357.648357) scale(0.1 -0.1)">
       <defs>
        <path id="DejaVuSans-70" d="M 1159 525 
L 1159 -1331 
L 581 -1331 
L 581 3500 
L 1159 3500 
L 1159 2969 
Q 1341 3281 1617 3432 
Q 1894 3584 2278 3584 
Q 2916 3584 3314 3078 
Q 3713 2572 3713 1747 
Q 3713 922 3314 415 
Q 2916 -91 2278 -91 
Q 1894 -91 1617 61 
Q 1341 213 1159 525 
z
M 3116 1747 
Q 3116 2381 2855 2742 
Q 2594 3103 2138 3103 
Q 1681 3103 1420 2742 
Q 1159 2381 1159 1747 
Q 1159 1113 1420 752 
Q 1681 391 2138 391 
Q 2594 391 2855 752 
Q 3116 1113 3116 1747 
z
" transform="scale(0.015625)"/>
        <path id="DejaVuSans-72" d="M 2631 2963 
Q 2534 3019 2420 3045 
Q 2306 3072 2169 3072 
Q 1681 3072 1420 2755 
Q 1159 2438 1159 1844 
L 1159 0 
L 581 0 
L 581 3500 
L 1159 3500 
L 1159 2956 
Q 1341 3275 1631 3429 
Q 1922 3584 2338 3584 
Q 2397 3584 2469 3576 
Q 2541 3569 2628 3553 
L 2631 2963 
z
" transform="scale(0.015625)"/>
        <path id="DejaVuSans-6f" d="M 1959 3097 
Q 1497 3097 1228 2736 
Q 959 2375 959 1747 
Q 959 1119 1226 758 
Q 1494 397 1959 397 
Q 2419 397 2687 759 
Q 2956 1122 2956 1747 
Q 2956 2369 2687 2733 
Q 2419 3097 1959 3097 
z
M 1959 3584 
Q 2709 3584 3137 3096 
Q 3566 2609 3566 1747 
Q 3566 888 3137 398 
Q 2709 -91 1959 -91 
Q 1206 -91 779 398 
Q 353 888 353 1747 
Q 353 2609 779 3096 
Q 1206 3584 1959 3584 
z
" transform="scale(0.015625)"/>
        <path id="DejaVuSans-62" d="M 3116 1747 
Q 3116 2381 2855 2742 
Q 2594 3103 2138 3103 
Q 1681 3103 1420 2742 
Q 1159 2381 1159 1747 
Q 1159 1113 1420 752 
Q 1681 391 2138 391 
Q 2594 391 2855 752 
Q 3116 1113 3116 1747 
z
M 1159 2969 
Q 1341 3281 1617 3432 
Q 1894 3584 2278 3584 
Q 2916 3584 3314 3078 
Q 3713 2572 3713 1747 
Q 3713 922 3314 415 
Q 2916 -91 2278 -91 
Q 1894 -91 1617 61 
Q 1341 213 1159 525 
L 1159 0 
L 581 0 
L 581 4863 
L 1159 4863 
L 1159 2969 
z
" transform="scale(0.015625)"/>
        <path id="DejaVuSans-65" d="M 3597 1894 
L 3597 1613 
L 953 1613 
Q 991 1019 1311 708 
Q 1631 397 2203 397 
Q 2534 397 2845 478 
Q 3156 559 3463 722 
L 3463 178 
Q 3153 47 2828 -22 
Q 2503 -91 2169 -91 
Q 1331 -91 842 396 
Q 353 884 353 1716 
Q 353 2575 817 3079 
Q 1281 3584 2069 3584 
Q 2775 3584 3186 3129 
Q 3597 2675 3597 1894 
z
M 3022 2063 
Q 3016 2534 2758 2815 
Q 2500 3097 2075 3097 
Q 1594 3097 1305 2825 
Q 1016 2553 972 2059 
L 3022 2063 
z
" transform="scale(0.015625)"/>
       </defs>
       <use xlink:href="#DejaVuSans-70"/>
       <use xlink:href="#DejaVuSans-72" transform="translate(63.476562 0)"/>
       <use xlink:href="#DejaVuSans-6f" transform="translate(102.339844 0)"/>
       <use xlink:href="#DejaVuSans-62" transform="translate(163.521484 0)"/>
       <use xlink:href="#DejaVuSans-65" transform="translate(226.998047 0)"/>
      </g>
      <!-- heart -->
      <g transform="translate(91.369209 368.84617) scale(0.1 -0.1)">
       <defs>
        <path id="DejaVuSans-68" d="M 3513 2113 
L 3513 0 
L 2938 0 
L 2938 2094 
Q 2938 2591 2744 2837 
Q 2550 3084 2163 3084 
Q 1697 3084 1428 2787 
Q 1159 2491 1159 1978 
L 1159 0 
L 581 0 
L 581 4863 
L 1159 4863 
L 1159 2956 
Q 1366 3272 1645 3428 
Q 1925 3584 2291 3584 
Q 2894 3584 3203 3211 
Q 3513 2838 3513 2113 
z
" transform="scale(0.015625)"/>
        <path id="DejaVuSans-61" d="M 2194 1759 
Q 1497 1759 1228 1600 
Q 959 1441 959 1056 
Q 959 750 1161 570 
Q 1363 391 1709 391 
Q 2188 391 2477 730 
Q 2766 1069 2766 1631 
L 2766 1759 
L 2194 1759 
z
M 3341 1997 
L 3341 0 
L 2766 0 
L 2766 531 
Q 2569 213 2275 61 
Q 1981 -91 1556 -91 
Q 1019 -91 701 211 
Q 384 513 384 1019 
Q 384 1609 779 1909 
Q 1175 2209 1959 2209 
L 2766 2209 
L 2766 2266 
Q 2766 2663 2505 2880 
Q 2244 3097 1772 3097 
Q 1472 3097 1187 3025 
Q 903 2953 641 2809 
L 641 3341 
Q 956 3463 1253 3523 
Q 1550 3584 1831 3584 
Q 2591 3584 2966 3190 
Q 3341 2797 3341 1997 
z
" transform="scale(0.015625)"/>
        <path id="DejaVuSans-74" d="M 1172 4494 
L 1172 3500 
L 2356 3500 
L 2356 3053 
L 1172 3053 
L 1172 1153 
Q 1172 725 1289 603 
Q 1406 481 1766 481 
L 2356 481 
L 2356 0 
L 1766 0 
Q 1100 0 847 248 
Q 594 497 594 1153 
L 594 3053 
L 172 3053 
L 172 3500 
L 594 3500 
L 594 4494 
L 1172 4494 
z
" transform="scale(0.015625)"/>
       </defs>
       <use xlink:href="#DejaVuSans-68"/>
       <use xlink:href="#DejaVuSans-65" transform="translate(63.378906 0)"/>
       <use xlink:href="#DejaVuSans-61" transform="translate(124.902344 0)"/>
       <use xlink:href="#DejaVuSans-72" transform="translate(186.181641 0)"/>
       <use xlink:href="#DejaVuSans-74" transform="translate(227.294922 0)"/>
      </g>
     </g>
    </g>
    <g id="xtick_2">
     <g id="line2d_2">
      <g>
       <use xlink:href="#m7082f07b1a" x="197.152615" y="343.04992" style="stroke: #000000; stroke-width: 0.8"/>
      </g>
     </g>
     <g id="text_2">
      <!-- probe -->
      <g transform="translate(182.725272 357.648357) scale(0.1 -0.1)">
       <use xlink:href="#DejaVuSans-70"/>
       <use xlink:href="#DejaVuSans-72" transform="translate(63.476562 0)"/>
       <use xlink:href="#DejaVuSans-6f" transform="translate(102.339844 0)"/>
       <use xlink:href="#DejaVuSans-62" transform="translate(163.521484 0)"/>
       <use xlink:href="#DejaVuSans-65" transform="translate(226.998047 0)"/>
      </g>
      <!-- liver -->
      <g transform="translate(186.283084 368.84617) scale(0.1 -0.1)">
       <defs>
        <path id="DejaVuSans-6c" d="M 603 4863 
L 1178 4863 
L 1178 0 
L 603 0 
L 603 4863 
z
" transform="scale(0.015625)"/>
        <path id="DejaVuSans-69" d="M 603 3500 
L 1178 3500 
L 1178 0 
L 603 0 
L 603 3500 
z
M 603 4863 
L 1178 4863 
L 1178 4134 
L 603 4134 
L 603 4863 
z
" transform="scale(0.015625)"/>
        <path id="DejaVuSans-76" d="M 191 3500 
L 800 3500 
L 1894 563 
L 2988 3500 
L 3597 3500 
L 2284 0 
L 1503 0 
L 191 3500 
z
" transform="scale(0.015625)"/>
       </defs>
       <use xlink:href="#DejaVuSans-6c"/>
       <use xlink:href="#DejaVuSans-69" transform="translate(27.783203 0)"/>
       <use xlink:href="#DejaVuSans-76" transform="translate(55.566406 0)"/>
       <use xlink:href="#DejaVuSans-65" transform="translate(114.746094 0)"/>
       <use xlink:href="#DejaVuSans-72" transform="translate(176.269531 0)"/>
      </g>
     </g>
    </g>
    <g id="xtick_3">
     <g id="line2d_3">
      <g>
       <use xlink:href="#m7082f07b1a" x="289.611021" y="343.04992" style="stroke: #000000; stroke-width: 0.8"/>
      </g>
     </g>
     <g id="text_3">
      <!-- probe -->
      <g transform="translate(275.183677 357.648357) scale(0.1 -0.1)">
       <use xlink:href="#DejaVuSans-70"/>
       <use xlink:href="#DejaVuSans-72" transform="translate(63.476562 0)"/>
       <use xlink:href="#DejaVuSans-6f" transform="translate(102.339844 0)"/>
       <use xlink:href="#DejaVuSans-62" transform="translate(163.521484 0)"/>
       <use xlink:href="#DejaVuSans-65" transform="translate(226.998047 0)"/>
      </g>
      <!-- brain -->
      <g transform="translate(276.759459 368.84617) scale(0.1 -0.1)">
       <defs>
        <path id="DejaVuSans-6e" d="M 3513 2113 
L 3513 0 
L 2938 0 
L 2938 2094 
Q 2938 2591 2744 2837 
Q 2550 3084 2163 3084 
Q 1697 3084 1428 2787 
Q 1159 2491 1159 1978 
L 1159 0 
L 581 0 
L 581 3500 
L 1159 3500 
L 1159 2956 
Q 1366 3272 1645 3428 
Q 1925 3584 2291 3584 
Q 2894 3584 3203 3211 
Q 3513 2838 3513 2113 
z
" transform="scale(0.015625)"/>
       </defs>
       <use xlink:href="#DejaVuSans-62"/>
       <use xlink:href="#DejaVuSans-72" transform="translate(63.476562 0)"/>
       <use xlink:href="#DejaVuSans-61" transform="translate(104.589844 0)"/>
       <use xlink:href="#DejaVuSans-69" transform="translate(165.869141 0)"/>
       <use xlink:href="#DejaVuSans-6e" transform="translate(193.652344 0)"/>
      </g>
     </g>
    </g>
    <g id="xtick_4">
     <g id="line2d_4">
      <g>
       <use xlink:href="#m7082f07b1a" x="382.069427" y="343.04992" style="stroke: #000000; stroke-width: 0.8"/>
      </g>
     </g>
     <g id="text_4">
      <!-- probe -->
      <g transform="translate(367.642083 357.648357) scale(0.1 -0.1)">
       <use xlink:href="#DejaVuSans-70"/>
       <use xlink:href="#DejaVuSans-72" transform="translate(63.476562 0)"/>
       <use xlink:href="#DejaVuSans-6f" transform="translate(102.339844 0)"/>
       <use xlink:href="#DejaVuSans-62" transform="translate(163.521484 0)"/>
       <use xlink:href="#DejaVuSans-65" transform="translate(226.998047 0)"/>
      </g>
      <!-- testis -->
      <g transform="translate(368.474114 368.84617) scale(0.1 -0.1)">
       <defs>
        <path id="DejaVuSans-73" d="M 2834 3397 
L 2834 2853 
Q 2591 2978 2328 3040 
Q 2066 3103 1784 3103 
Q 1356 3103 1142 2972 
Q 928 2841 928 2578 
Q 928 2378 1081 2264 
Q 1234 2150 1697 2047 
L 1894 2003 
Q 2506 1872 2764 1633 
Q 3022 1394 3022 966 
Q 3022 478 2636 193 
Q 2250 -91 1575 -91 
Q 1294 -91 989 -36 
Q 684 19 347 128 
L 347 722 
Q 666 556 975 473 
Q 1284 391 1588 391 
Q 1994 391 2212 530 
Q 2431 669 2431 922 
Q 2431 1156 2273 1281 
Q 2116 1406 1581 1522 
L 1381 1569 
Q 847 1681 609 1914 
Q 372 2147 372 2553 
Q 372 3047 722 3315 
Q 1072 3584 1716 3584 
Q 2034 3584 2315 3537 
Q 2597 3491 2834 3397 
z
" transform="scale(0.015625)"/>
       </defs>
       <use xlink:href="#DejaVuSans-74"/>
       <use xlink:href="#DejaVuSans-65" transform="translate(39.208984 0)"/>
       <use xlink:href="#DejaVuSans-73" transform="translate(100.732422 0)"/>
       <use xlink:href="#DejaVuSans-74" transform="translate(152.832031 0)"/>
       <use xlink:href="#DejaVuSans-69" transform="translate(192.041016 0)"/>
       <use xlink:href="#DejaVuSans-73" transform="translate(219.824219 0)"/>
      </g>
     </g>
    </g>
   </g>
   <g id="matplotlib.axis_2">
    <g id="ytick_1">
     <g id="line2d_5">
      <path d="M 50.14375 314.261322 
L 436.619886 314.261322 
" clip-path="url(#pc85fa0641b)" style="fill: none; stroke: #b0b0b0; stroke-opacity: 0.18; stroke-width: 0.6; stroke-linecap: square"/>
     </g>
     <g id="line2d_6">
      <defs>
       <path id="ma7f14450af" d="M 0 0 
L -3.5 0 
" style="stroke: #000000; stroke-width: 0.8"/>
      </defs>
      <g>
       <use xlink:href="#ma7f14450af" x="50.14375" y="314.261322" style="stroke: #000000; stroke-width: 0.8"/>
      </g>
     </g>
     <g id="text_5">
      <!-- 0.91 -->
      <g transform="translate(20.878125 318.060541) scale(0.1 -0.1)">
       <defs>
        <path id="DejaVuSans-30" d="M 2034 4250 
Q 1547 4250 1301 3770 
Q 1056 3291 1056 2328 
Q 1056 1369 1301 889 
Q 1547 409 2034 409 
Q 2525 409 2770 889 
Q 3016 1369 3016 2328 
Q 3016 3291 2770 3770 
Q 2525 4250 2034 4250 
z
M 2034 4750 
Q 2819 4750 3233 4129 
Q 3647 3509 3647 2328 
Q 3647 1150 3233 529 
Q 2819 -91 2034 -91 
Q 1250 -91 836 529 
Q 422 1150 422 2328 
Q 422 3509 836 4129 
Q 1250 4750 2034 4750 
z
" transform="scale(0.015625)"/>
        <path id="DejaVuSans-2e" d="M 684 794 
L 1344 794 
L 1344 0 
L 684 0 
L 684 794 
z
" transform="scale(0.015625)"/>
        <path id="DejaVuSans-39" d="M 703 97 
L 703 672 
Q 941 559 1184 500 
Q 1428 441 1663 441 
Q 2288 441 2617 861 
Q 2947 1281 2994 2138 
Q 2813 1869 2534 1725 
Q 2256 1581 1919 1581 
Q 1219 1581 811 2004 
Q 403 2428 403 3163 
Q 403 3881 828 4315 
Q 1253 4750 1959 4750 
Q 2769 4750 3195 4129 
Q 3622 3509 3622 2328 
Q 3622 1225 3098 567 
Q 2575 -91 1691 -91 
Q 1453 -91 1209 -44 
Q 966 3 703 97 
z
M 1959 2075 
Q 2384 2075 2632 2365 
Q 2881 2656 2881 3163 
Q 2881 3666 2632 3958 
Q 2384 4250 1959 4250 
Q 1534 4250 1286 3958 
Q 1038 3666 1038 3163 
Q 1038 2656 1286 2365 
Q 1534 2075 1959 2075 
z
" transform="scale(0.015625)"/>
        <path id="DejaVuSans-31" d="M 794 531 
L 1825 531 
L 1825 4091 
L 703 3866 
L 703 4441 
L 1819 4666 
L 2450 4666 
L 2450 531 
L 3481 531 
L 3481 0 
L 794 0 
L 794 531 
z
" transform="scale(0.015625)"/>
       </defs>
       <use xlink:href="#DejaVuSans-30"/>
       <use xlink:href="#DejaVuSans-2e" transform="translate(63.623047 0)"/>
       <use xlink:href="#DejaVuSans-39" transform="translate(95.410156 0)"/>
       <use xlink:href="#DejaVuSans-31" transform="translate(159.033203 0)"/>
      </g>
     </g>
    </g>
    <g id="ytick_2">
     <g id="line2d_7">
      <path d="M 50.14375 280.262335 
L 436.619886 280.262335 
" clip-path="url(#pc85fa0641b)" style="fill: none; stroke: #b0b0b0; stroke-opacity: 0.18; stroke-width: 0.6; stroke-linecap: square"/>
     </g>
     <g id="line2d_8">
      <g>
       <use xlink:href="#ma7f14450af" x="50.14375" y="280.262335" style="stroke: #000000; stroke-width: 0.8"/>
      </g>
     </g>
     <g id="text_6">
      <!-- 0.92 -->
      <g transform="translate(20.878125 284.061554) scale(0.1 -0.1)">
       <defs>
        <path id="DejaVuSans-32" d="M 1228 531 
L 3431 531 
L 3431 0 
L 469 0 
L 469 531 
Q 828 903 1448 1529 
Q 2069 2156 2228 2338 
Q 2531 2678 2651 2914 
Q 2772 3150 2772 3378 
Q 2772 3750 2511 3984 
Q 2250 4219 1831 4219 
Q 1534 4219 1204 4116 
Q 875 4013 500 3803 
L 500 4441 
Q 881 4594 1212 4672 
Q 1544 4750 1819 4750 
Q 2544 4750 2975 4387 
Q 3406 4025 3406 3419 
Q 3406 3131 3298 2873 
Q 3191 2616 2906 2266 
Q 2828 2175 2409 1742 
Q 1991 1309 1228 531 
z
" transform="scale(0.015625)"/>
       </defs>
       <use xlink:href="#DejaVuSans-30"/>
       <use xlink:href="#DejaVuSans-2e" transform="translate(63.623047 0)"/>
       <use xlink:href="#DejaVuSans-39" transform="translate(95.410156 0)"/>
       <use xlink:href="#DejaVuSans-32" transform="translate(159.033203 0)"/>
      </g>
     </g>
    </g>
    <g id="ytick_3">
     <g id="line2d_9">
      <path d="M 50.14375 246.263349 
L 436.619886 246.263349 
" clip-path="url(#pc85fa0641b)" style="fill: none; stroke: #b0b0b0; stroke-opacity: 0.18; stroke-width: 0.6; stroke-linecap: square"/>
     </g>
     <g id="line2d_10">
      <g>
       <use xlink:href="#ma7f14450af" x="50.14375" y="246.263349" style="stroke: #000000; stroke-width: 0.8"/>
      </g>
     </g>
     <g id="text_7">
      <!-- 0.93 -->
      <g transform="translate(20.878125 250.062567) scale(0.1 -0.1)">
       <defs>
        <path id="DejaVuSans-33" d="M 2597 2516 
Q 3050 2419 3304 2112 
Q 3559 1806 3559 1356 
Q 3559 666 3084 287 
Q 2609 -91 1734 -91 
Q 1441 -91 1130 -33 
Q 819 25 488 141 
L 488 750 
Q 750 597 1062 519 
Q 1375 441 1716 441 
Q 2309 441 2620 675 
Q 2931 909 2931 1356 
Q 2931 1769 2642 2001 
Q 2353 2234 1838 2234 
L 1294 2234 
L 1294 2753 
L 1863 2753 
Q 2328 2753 2575 2939 
Q 2822 3125 2822 3475 
Q 2822 3834 2567 4026 
Q 2313 4219 1838 4219 
Q 1578 4219 1281 4162 
Q 984 4106 628 3988 
L 628 4550 
Q 988 4650 1302 4700 
Q 1616 4750 1894 4750 
Q 2613 4750 3031 4423 
Q 3450 4097 3450 3541 
Q 3450 3153 3228 2886 
Q 3006 2619 2597 2516 
z
" transform="scale(0.015625)"/>
       </defs>
       <use xlink:href="#DejaVuSans-30"/>
       <use xlink:href="#DejaVuSans-2e" transform="translate(63.623047 0)"/>
       <use xlink:href="#DejaVuSans-39" transform="translate(95.410156 0)"/>
       <use xlink:href="#DejaVuSans-33" transform="translate(159.033203 0)"/>
      </g>
     </g>
    </g>
    <g id="ytick_4">
     <g id="line2d_11">
      <path d="M 50.14375 212.264362 
L 436.619886 212.264362 
" clip-path="url(#pc85fa0641b)" style="fill: none; stroke: #b0b0b0; stroke-opacity: 0.18; stroke-width: 0.6; stroke-linecap: square"/>
     </g>
     <g id="line2d_12">
      <g>
       <use xlink:href="#ma7f14450af" x="50.14375" y="212.264362" style="stroke: #000000; stroke-width: 0.8"/>
      </g>
     </g>
     <g id="text_8">
      <!-- 0.94 -->
      <g transform="translate(20.878125 216.063581) scale(0.1 -0.1)">
       <defs>
        <path id="DejaVuSans-34" d="M 2419 4116 
L 825 1625 
L 2419 1625 
L 2419 4116 
z
M 2253 4666 
L 3047 4666 
L 3047 1625 
L 3713 1625 
L 3713 1100 
L 3047 1100 
L 3047 0 
L 2419 0 
L 2419 1100 
L 313 1100 
L 313 1709 
L 2253 4666 
z
" transform="scale(0.015625)"/>
       </defs>
       <use xlink:href="#DejaVuSans-30"/>
       <use xlink:href="#DejaVuSans-2e" transform="translate(63.623047 0)"/>
       <use xlink:href="#DejaVuSans-39" transform="translate(95.410156 0)"/>
       <use xlink:href="#DejaVuSans-34" transform="translate(159.033203 0)"/>
      </g>
     </g>
    </g>
    <g id="ytick_5">
     <g id="line2d_13">
      <path d="M 50.14375 178.265375 
L 436.619886 178.265375 
" clip-path="url(#pc85fa0641b)" style="fill: none; stroke: #b0b0b0; stroke-opacity: 0.18; stroke-width: 0.6; stroke-linecap: square"/>
     </g>
     <g id="line2d_14">
      <g>
       <use xlink:href="#ma7f14450af" x="50.14375" y="178.265375" style="stroke: #000000; stroke-width: 0.8"/>
      </g>
     </g>
     <g id="text_9">
      <!-- 0.95 -->
      <g transform="translate(20.878125 182.064594) scale(0.1 -0.1)">
       <defs>
        <path id="DejaVuSans-35" d="M 691 4666 
L 3169 4666 
L 3169 4134 
L 1269 4134 
L 1269 2991 
Q 1406 3038 1543 3061 
Q 1681 3084 1819 3084 
Q 2600 3084 3056 2656 
Q 3513 2228 3513 1497 
Q 3513 744 3044 326 
Q 2575 -91 1722 -91 
Q 1428 -91 1123 -41 
Q 819 9 494 109 
L 494 744 
Q 775 591 1075 516 
Q 1375 441 1709 441 
Q 2250 441 2565 725 
Q 2881 1009 2881 1497 
Q 2881 1984 2565 2268 
Q 2250 2553 1709 2553 
Q 1456 2553 1204 2497 
Q 953 2441 691 2322 
L 691 4666 
z
" transform="scale(0.015625)"/>
       </defs>
       <use xlink:href="#DejaVuSans-30"/>
       <use xlink:href="#DejaVuSans-2e" transform="translate(63.623047 0)"/>
       <use xlink:href="#DejaVuSans-39" transform="translate(95.410156 0)"/>
       <use xlink:href="#DejaVuSans-35" transform="translate(159.033203 0)"/>
      </g>
     </g>
    </g>
    <g id="ytick_6">
     <g id="line2d_15">
      <path d="M 50.14375 144.266389 
L 436.619886 144.266389 
" clip-path="url(#pc85fa0641b)" style="fill: none; stroke: #b0b0b0; stroke-opacity: 0.18; stroke-width: 0.6; stroke-linecap: square"/>
     </g>
     <g id="line2d_16">
      <g>
       <use xlink:href="#ma7f14450af" x="50.14375" y="144.266389" style="stroke: #000000; stroke-width: 0.8"/>
      </g>
     </g>
     <g id="text_10">
      <!-- 0.96 -->
      <g transform="translate(20.878125 148.065607) scale(0.1 -0.1)">
       <defs>
        <path id="DejaVuSans-36" d="M 2113 2584 
Q 1688 2584 1439 2293 
Q 1191 2003 1191 1497 
Q 1191 994 1439 701 
Q 1688 409 2113 409 
Q 2538 409 2786 701 
Q 3034 994 3034 1497 
Q 3034 2003 2786 2293 
Q 2538 2584 2113 2584 
z
M 3366 4563 
L 3366 3988 
Q 3128 4100 2886 4159 
Q 2644 4219 2406 4219 
Q 1781 4219 1451 3797 
Q 1122 3375 1075 2522 
Q 1259 2794 1537 2939 
Q 1816 3084 2150 3084 
Q 2853 3084 3261 2657 
Q 3669 2231 3669 1497 
Q 3669 778 3244 343 
Q 2819 -91 2113 -91 
Q 1303 -91 875 529 
Q 447 1150 447 2328 
Q 447 3434 972 4092 
Q 1497 4750 2381 4750 
Q 2619 4750 2861 4703 
Q 3103 4656 3366 4563 
z
" transform="scale(0.015625)"/>
       </defs>
       <use xlink:href="#DejaVuSans-30"/>
       <use xlink:href="#DejaVuSans-2e" transform="translate(63.623047 0)"/>
       <use xlink:href="#DejaVuSans-39" transform="translate(95.410156 0)"/>
       <use xlink:href="#DejaVuSans-36" transform="translate(159.033203 0)"/>
      </g>
     </g>
    </g>
    <g id="ytick_7">
     <g id="line2d_17">
      <path d="M 50.14375 110.267402 
L 436.619886 110.267402 
" clip-path="url(#pc85fa0641b)" style="fill: none; stroke: #b0b0b0; stroke-opacity: 0.18; stroke-width: 0.6; stroke-linecap: square"/>
     </g>
     <g id="line2d_18">
      <g>
       <use xlink:href="#ma7f14450af" x="50.14375" y="110.267402" style="stroke: #000000; stroke-width: 0.8"/>
      </g>
     </g>
     <g id="text_11">
      <!-- 0.97 -->
      <g transform="translate(20.878125 114.066621) scale(0.1 -0.1)">
       <defs>
        <path id="DejaVuSans-37" d="M 525 4666 
L 3525 4666 
L 3525 4397 
L 1831 0 
L 1172 0 
L 2766 4134 
L 525 4134 
L 525 4666 
z
" transform="scale(0.015625)"/>
       </defs>
       <use xlink:href="#DejaVuSans-30"/>
       <use xlink:href="#DejaVuSans-2e" transform="translate(63.623047 0)"/>
       <use xlink:href="#DejaVuSans-39" transform="translate(95.410156 0)"/>
       <use xlink:href="#DejaVuSans-37" transform="translate(159.033203 0)"/>
      </g>
     </g>
    </g>
    <g id="ytick_8">
     <g id="line2d_19">
      <path d="M 50.14375 76.268415 
L 436.619886 76.268415 
" clip-path="url(#pc85fa0641b)" style="fill: none; stroke: #b0b0b0; stroke-opacity: 0.18; stroke-width: 0.6; stroke-linecap: square"/>
     </g>
     <g id="line2d_20">
      <g>
       <use xlink:href="#ma7f14450af" x="50.14375" y="76.268415" style="stroke: #000000; stroke-width: 0.8"/>
      </g>
     </g>
     <g id="text_12">
      <!-- 0.98 -->
      <g transform="translate(20.878125 80.067634) scale(0.1 -0.1)">
       <defs>
        <path id="DejaVuSans-38" d="M 2034 2216 
Q 1584 2216 1326 1975 
Q 1069 1734 1069 1313 
Q 1069 891 1326 650 
Q 1584 409 2034 409 
Q 2484 409 2743 651 
Q 3003 894 3003 1313 
Q 3003 1734 2745 1975 
Q 2488 2216 2034 2216 
z
M 1403 2484 
Q 997 2584 770 2862 
Q 544 3141 544 3541 
Q 544 4100 942 4425 
Q 1341 4750 2034 4750 
Q 2731 4750 3128 4425 
Q 3525 4100 3525 3541 
Q 3525 3141 3298 2862 
Q 3072 2584 2669 2484 
Q 3125 2378 3379 2068 
Q 3634 1759 3634 1313 
Q 3634 634 3220 271 
Q 2806 -91 2034 -91 
Q 1263 -91 848 271 
Q 434 634 434 1313 
Q 434 1759 690 2068 
Q 947 2378 1403 2484 
z
M 1172 3481 
Q 1172 3119 1398 2916 
Q 1625 2713 2034 2713 
Q 2441 2713 2670 2916 
Q 2900 3119 2900 3481 
Q 2900 3844 2670 4047 
Q 2441 4250 2034 4250 
Q 1625 4250 1398 4047 
Q 1172 3844 1172 3481 
z
" transform="scale(0.015625)"/>
       </defs>
       <use xlink:href="#DejaVuSans-30"/>
       <use xlink:href="#DejaVuSans-2e" transform="translate(63.623047 0)"/>
       <use xlink:href="#DejaVuSans-39" transform="translate(95.410156 0)"/>
       <use xlink:href="#DejaVuSans-38" transform="translate(159.033203 0)"/>
      </g>
     </g>
    </g>
    <g id="text_13">
     <!-- Spearman ρ at true sites -->
     <g transform="translate(14.798438 260.835897) rotate(-90) scale(0.1 -0.1)">
      <defs>
       <path id="DejaVuSans-53" d="M 3425 4513 
L 3425 3897 
Q 3066 4069 2747 4153 
Q 2428 4238 2131 4238 
Q 1616 4238 1336 4038 
Q 1056 3838 1056 3469 
Q 1056 3159 1242 3001 
Q 1428 2844 1947 2747 
L 2328 2669 
Q 3034 2534 3370 2195 
Q 3706 1856 3706 1288 
Q 3706 609 3251 259 
Q 2797 -91 1919 -91 
Q 1588 -91 1214 -16 
Q 841 59 441 206 
L 441 856 
Q 825 641 1194 531 
Q 1563 422 1919 422 
Q 2459 422 2753 634 
Q 3047 847 3047 1241 
Q 3047 1584 2836 1778 
Q 2625 1972 2144 2069 
L 1759 2144 
Q 1053 2284 737 2584 
Q 422 2884 422 3419 
Q 422 4038 858 4394 
Q 1294 4750 2059 4750 
Q 2388 4750 2728 4690 
Q 3069 4631 3425 4513 
z
" transform="scale(0.015625)"/>
       <path id="DejaVuSans-6d" d="M 3328 2828 
Q 3544 3216 3844 3400 
Q 4144 3584 4550 3584 
Q 5097 3584 5394 3201 
Q 5691 2819 5691 2113 
L 5691 0 
L 5113 0 
L 5113 2094 
Q 5113 2597 4934 2840 
Q 4756 3084 4391 3084 
Q 3944 3084 3684 2787 
Q 3425 2491 3425 1978 
L 3425 0 
L 2847 0 
L 2847 2094 
Q 2847 2600 2669 2842 
Q 2491 3084 2119 3084 
Q 1678 3084 1418 2786 
Q 1159 2488 1159 1978 
L 1159 0 
L 581 0 
L 581 3500 
L 1159 3500 
L 1159 2956 
Q 1356 3278 1631 3431 
Q 1906 3584 2284 3584 
Q 2666 3584 2933 3390 
Q 3200 3197 3328 2828 
z
" transform="scale(0.015625)"/>
       <path id="DejaVuSans-20" transform="scale(0.015625)"/>
       <path id="DejaVuSans-3c1" d="M 863 2875 
Q 1053 3194 1525 3475 
Q 1709 3584 2278 3584 
Q 2916 3584 3314 3078 
Q 3713 2572 3713 1747 
Q 3713 922 3314 415 
Q 2916 -91 2278 -91 
Q 1894 -91 1617 61 
Q 1341 213 1159 525 
L 1159 -1331 
L 581 -1331 
L 581 1716 
Q 581 2438 863 2875 
z
M 3116 1747 
Q 3116 2381 2855 2742 
Q 2594 3103 2138 3103 
Q 1681 3103 1420 2742 
Q 1159 2381 1159 1747 
Q 1159 1113 1420 752 
Q 1681 391 2138 391 
Q 2594 391 2855 752 
Q 3116 1113 3116 1747 
z
" transform="scale(0.015625)"/>
       <path id="DejaVuSans-75" d="M 544 1381 
L 544 3500 
L 1119 3500 
L 1119 1403 
Q 1119 906 1312 657 
Q 1506 409 1894 409 
Q 2359 409 2629 706 
Q 2900 1003 2900 1516 
L 2900 3500 
L 3475 3500 
L 3475 0 
L 2900 0 
L 2900 538 
Q 2691 219 2414 64 
Q 2138 -91 1772 -91 
Q 1169 -91 856 284 
Q 544 659 544 1381 
z
M 1991 3584 
L 1991 3584 
z
" transform="scale(0.015625)"/>
      </defs>
      <use xlink:href="#DejaVuSans-53"/>
      <use xlink:href="#DejaVuSans-70" transform="translate(63.476562 0)"/>
      <use xlink:href="#DejaVuSans-65" transform="translate(126.953125 0)"/>
      <use xlink:href="#DejaVuSans-61" transform="translate(188.476562 0)"/>
      <use xlink:href="#DejaVuSans-72" transform="translate(249.755859 0)"/>
      <use xlink:href="#DejaVuSans-6d" transform="translate(289.119141 0)"/>
      <use xlink:href="#DejaVuSans-61" transform="translate(386.53125 0)"/>
      <use xlink:href="#DejaVuSans-6e" transform="translate(447.810547 0)"/>
      <use xlink:href="#DejaVuSans-20" transform="translate(511.189453 0)"/>
      <use xlink:href="#DejaVuSans-3c1" transform="translate(542.976562 0)"/>
      <use xlink:href="#DejaVuSans-20" transform="translate(606.453125 0)"/>
      <use xlink:href="#DejaVuSans-61" transform="translate(638.240234 0)"/>
      <use xlink:href="#DejaVuSans-74" transform="translate(699.519531 0)"/>
      <use xlink:href="#DejaVuSans-20" transform="translate(738.728516 0)"/>
      <use xlink:href="#DejaVuSans-74" transform="translate(770.515625 0)"/>
      <use xlink:href="#DejaVuSans-72" transform="translate(809.724609 0)"/>
      <use xlink:href="#DejaVuSans-75" transform="translate(850.837891 0)"/>
      <use xlink:href="#DejaVuSans-65" transform="translate(914.216797 0)"/>
      <use xlink:href="#DejaVuSans-20" transform="translate(975.740234 0)"/>
      <use xlink:href="#DejaVuSans-73" transform="translate(1007.527344 0)"/>
      <use xlink:href="#DejaVuSans-69" transform="translate(1059.626953 0)"/>
      <use xlink:href="#DejaVuSans-74" transform="translate(1087.410156 0)"/>
      <use xlink:href="#DejaVuSans-65" transform="translate(1126.619141 0)"/>
      <use xlink:href="#DejaVuSans-73" transform="translate(1188.142578 0)"/>
     </g>
    </g>
   </g>
   <g id="patch_19">
    <path d="M 50.14375 343.04992 
L 50.14375 54.6 
" style="fill: none; stroke: #000000; stroke-width: 0.8; stroke-linejoin: miter; stroke-linecap: square"/>
   </g>
   <g id="patch_20">
    <path d="M 50.14375 343.04992 
L 436.619886 343.04992 
" style="fill: none; stroke: #000000; stroke-width: 0.8; stroke-linejoin: miter; stroke-linecap: square"/>
   </g>
   <g id="text_14">
    <!-- 0.959 -->
    <g transform="translate(67.652547 144.781255) scale(0.065 -0.065)">
     <use xlink:href="#DejaVuSans-30"/>
     <use xlink:href="#DejaVuSans-2e" transform="translate(63.623047 0)"/>
     <use xlink:href="#DejaVuSans-39" transform="translate(95.410156 0)"/>
     <use xlink:href="#DejaVuSans-35" transform="translate(159.033203 0)"/>
     <use xlink:href="#DejaVuSans-39" transform="translate(222.65625 0)"/>
    </g>
   </g>
   <g id="text_15">
    <!-- 0.961 -->
    <g transform="translate(160.110953 136.52043) scale(0.065 -0.065)">
     <use xlink:href="#DejaVuSans-30"/>
     <use xlink:href="#DejaVuSans-2e" transform="translate(63.623047 0)"/>
     <use xlink:href="#DejaVuSans-39" transform="translate(95.410156 0)"/>
     <use xlink:href="#DejaVuSans-36" transform="translate(159.033203 0)"/>
     <use xlink:href="#DejaVuSans-31" transform="translate(222.65625 0)"/>
    </g>
   </g>
   <g id="text_16">
    <!-- 0.954 -->
    <g transform="translate(252.569359 159.060293) scale(0.065 -0.065)">
     <use xlink:href="#DejaVuSans-30"/>
     <use xlink:href="#DejaVuSans-2e" transform="translate(63.623047 0)"/>
     <use xlink:href="#DejaVuSans-39" transform="translate(95.410156 0)"/>
     <use xlink:href="#DejaVuSans-35" transform="translate(159.033203 0)"/>
     <use xlink:href="#DejaVuSans-34" transform="translate(222.65625 0)"/>
    </g>
   </g>
   <g id="text_17">
    <!-- 0.921 -->
    <g transform="translate(345.027765 271.449751) scale(0.065 -0.065)">
     <use xlink:href="#DejaVuSans-30"/>
     <use xlink:href="#DejaVuSans-2e" transform="translate(63.623047 0)"/>
     <use xlink:href="#DejaVuSans-39" transform="translate(95.410156 0)"/>
     <use xlink:href="#DejaVuSans-32" transform="translate(159.033203 0)"/>
     <use xlink:href="#DejaVuSans-31" transform="translate(222.65625 0)"/>
    </g>
   </g>
   <g id="text_18">
    <!-- 0.950 -->
    <g transform="translate(86.144228 173.440639) scale(0.065 -0.065)">
     <use xlink:href="#DejaVuSans-30"/>
     <use xlink:href="#DejaVuSans-2e" transform="translate(63.623047 0)"/>
     <use xlink:href="#DejaVuSans-39" transform="translate(95.410156 0)"/>
     <use xlink:href="#DejaVuSans-35" transform="translate(159.033203 0)"/>
     <use xlink:href="#DejaVuSans-30" transform="translate(222.65625 0)"/>
    </g>
   </g>
   <g id="text_19">
    <!-- 0.976 -->
    <g transform="translate(178.602634 84.527271) scale(0.065 -0.065)">
     <use xlink:href="#DejaVuSans-30"/>
     <use xlink:href="#DejaVuSans-2e" transform="translate(63.623047 0)"/>
     <use xlink:href="#DejaVuSans-39" transform="translate(95.410156 0)"/>
     <use xlink:href="#DejaVuSans-37" transform="translate(159.033203 0)"/>
     <use xlink:href="#DejaVuSans-36" transform="translate(222.65625 0)"/>
    </g>
   </g>
   <g id="text_20">
    <!-- 0.954 -->
    <g transform="translate(271.06104 160.447099) scale(0.065 -0.065)">
     <use xlink:href="#DejaVuSans-30"/>
     <use xlink:href="#DejaVuSans-2e" transform="translate(63.623047 0)"/>
     <use xlink:href="#DejaVuSans-39" transform="translate(95.410156 0)"/>
     <use xlink:href="#DejaVuSans-35" transform="translate(159.033203 0)"/>
     <use xlink:href="#DejaVuSans-34" transform="translate(222.65625 0)"/>
    </g>
   </g>
   <g id="text_21">
    <!-- 0.930 -->
    <g transform="translate(363.519446 242.551845) scale(0.065 -0.065)">
     <use xlink:href="#DejaVuSans-30"/>
     <use xlink:href="#DejaVuSans-2e" transform="translate(63.623047 0)"/>
     <use xlink:href="#DejaVuSans-39" transform="translate(95.410156 0)"/>
     <use xlink:href="#DejaVuSans-33" transform="translate(159.033203 0)"/>
     <use xlink:href="#DejaVuSans-30" transform="translate(222.65625 0)"/>
    </g>
   </g>
   <g id="text_22">
    <!-- 0.950 -->
    <g transform="translate(104.635909 173.973585) scale(0.065 -0.065)">
     <use xlink:href="#DejaVuSans-30"/>
     <use xlink:href="#DejaVuSans-2e" transform="translate(63.623047 0)"/>
     <use xlink:href="#DejaVuSans-39" transform="translate(95.410156 0)"/>
     <use xlink:href="#DejaVuSans-35" transform="translate(159.033203 0)"/>
     <use xlink:href="#DejaVuSans-30" transform="translate(222.65625 0)"/>
    </g>
   </g>
   <g id="text_23">
    <!-- 0.961 -->
    <g transform="translate(197.094315 136.584923) scale(0.065 -0.065)">
     <use xlink:href="#DejaVuSans-30"/>
     <use xlink:href="#DejaVuSans-2e" transform="translate(63.623047 0)"/>
     <use xlink:href="#DejaVuSans-39" transform="translate(95.410156 0)"/>
     <use xlink:href="#DejaVuSans-36" transform="translate(159.033203 0)"/>
     <use xlink:href="#DejaVuSans-31" transform="translate(222.65625 0)"/>
    </g>
   </g>
   <g id="text_24">
    <!-- 0.972 -->
    <g transform="translate(289.552721 100.834392) scale(0.065 -0.065)">
     <use xlink:href="#DejaVuSans-30"/>
     <use xlink:href="#DejaVuSans-2e" transform="translate(63.623047 0)"/>
     <use xlink:href="#DejaVuSans-39" transform="translate(95.410156 0)"/>
     <use xlink:href="#DejaVuSans-37" transform="translate(159.033203 0)"/>
     <use xlink:href="#DejaVuSans-32" transform="translate(222.65625 0)"/>
    </g>
   </g>
   <g id="text_25">
    <!-- 0.936 -->
    <g transform="translate(382.011127 222.797082) scale(0.065 -0.065)">
     <use xlink:href="#DejaVuSans-30"/>
     <use xlink:href="#DejaVuSans-2e" transform="translate(63.623047 0)"/>
     <use xlink:href="#DejaVuSans-39" transform="translate(95.410156 0)"/>
     <use xlink:href="#DejaVuSans-33" transform="translate(159.033203 0)"/>
     <use xlink:href="#DejaVuSans-36" transform="translate(222.65625 0)"/>
    </g>
   </g>
   <g id="text_26">
    <!-- 0.907 -->
    <g transform="translate(123.127591 321.978711) scale(0.065 -0.065)">
     <use xlink:href="#DejaVuSans-30"/>
     <use xlink:href="#DejaVuSans-2e" transform="translate(63.623047 0)"/>
     <use xlink:href="#DejaVuSans-39" transform="translate(95.410156 0)"/>
     <use xlink:href="#DejaVuSans-30" transform="translate(159.033203 0)"/>
     <use xlink:href="#DejaVuSans-37" transform="translate(222.65625 0)"/>
    </g>
   </g>
   <g id="text_27">
    <!-- 0.932 -->
    <g transform="translate(215.585996 235.109301) scale(0.065 -0.065)">
     <use xlink:href="#DejaVuSans-30"/>
     <use xlink:href="#DejaVuSans-2e" transform="translate(63.623047 0)"/>
     <use xlink:href="#DejaVuSans-39" transform="translate(95.410156 0)"/>
     <use xlink:href="#DejaVuSans-33" transform="translate(159.033203 0)"/>
     <use xlink:href="#DejaVuSans-32" transform="translate(222.65625 0)"/>
    </g>
   </g>
   <g id="text_28">
    <!-- 0.921 -->
    <g transform="translate(308.044402 272.992467) scale(0.065 -0.065)">
     <use xlink:href="#DejaVuSans-30"/>
     <use xlink:href="#DejaVuSans-2e" transform="translate(63.623047 0)"/>
     <use xlink:href="#DejaVuSans-39" transform="translate(95.410156 0)"/>
     <use xlink:href="#DejaVuSans-32" transform="translate(159.033203 0)"/>
     <use xlink:href="#DejaVuSans-31" transform="translate(222.65625 0)"/>
    </g>
   </g>
   <g id="text_29">
    <!-- 0.961 -->
    <g transform="translate(400.502808 137.632378) scale(0.065 -0.065)">
     <use xlink:href="#DejaVuSans-30"/>
     <use xlink:href="#DejaVuSans-2e" transform="translate(63.623047 0)"/>
     <use xlink:href="#DejaVuSans-39" transform="translate(95.410156 0)"/>
     <use xlink:href="#DejaVuSans-36" transform="translate(159.033203 0)"/>
     <use xlink:href="#DejaVuSans-31" transform="translate(222.65625 0)"/>
    </g>
   </g>
   <g id="text_30">
    <!-- Per-tissue probe vs Pangolin P(spliced) -->
    <g transform="translate(137.475021 48.6) scale(0.11 -0.11)">
     <defs>
      <path id="DejaVuSans-50" d="M 1259 4147 
L 1259 2394 
L 2053 2394 
Q 2494 2394 2734 2622 
Q 2975 2850 2975 3272 
Q 2975 3691 2734 3919 
Q 2494 4147 2053 4147 
L 1259 4147 
z
M 628 4666 
L 2053 4666 
Q 2838 4666 3239 4311 
Q 3641 3956 3641 3272 
Q 3641 2581 3239 2228 
Q 2838 1875 2053 1875 
L 1259 1875 
L 1259 0 
L 628 0 
L 628 4666 
z
" transform="scale(0.015625)"/>
      <path id="DejaVuSans-2d" d="M 313 2009 
L 1997 2009 
L 1997 1497 
L 313 1497 
L 313 2009 
z
" transform="scale(0.015625)"/>
      <path id="DejaVuSans-67" d="M 2906 1791 
Q 2906 2416 2648 2759 
Q 2391 3103 1925 3103 
Q 1463 3103 1205 2759 
Q 947 2416 947 1791 
Q 947 1169 1205 825 
Q 1463 481 1925 481 
Q 2391 481 2648 825 
Q 2906 1169 2906 1791 
z
M 3481 434 
Q 3481 -459 3084 -895 
Q 2688 -1331 1869 -1331 
Q 1566 -1331 1297 -1286 
Q 1028 -1241 775 -1147 
L 775 -588 
Q 1028 -725 1275 -790 
Q 1522 -856 1778 -856 
Q 2344 -856 2625 -561 
Q 2906 -266 2906 331 
L 2906 616 
Q 2728 306 2450 153 
Q 2172 0 1784 0 
Q 1141 0 747 490 
Q 353 981 353 1791 
Q 353 2603 747 3093 
Q 1141 3584 1784 3584 
Q 2172 3584 2450 3431 
Q 2728 3278 2906 2969 
L 2906 3500 
L 3481 3500 
L 3481 434 
z
" transform="scale(0.015625)"/>
      <path id="DejaVuSans-28" d="M 1984 4856 
Q 1566 4138 1362 3434 
Q 1159 2731 1159 2009 
Q 1159 1288 1364 580 
Q 1569 -128 1984 -844 
L 1484 -844 
Q 1016 -109 783 600 
Q 550 1309 550 2009 
Q 550 2706 781 3412 
Q 1013 4119 1484 4856 
L 1984 4856 
z
" transform="scale(0.015625)"/>
      <path id="DejaVuSans-63" d="M 3122 3366 
L 3122 2828 
Q 2878 2963 2633 3030 
Q 2388 3097 2138 3097 
Q 1578 3097 1268 2742 
Q 959 2388 959 1747 
Q 959 1106 1268 751 
Q 1578 397 2138 397 
Q 2388 397 2633 464 
Q 2878 531 3122 666 
L 3122 134 
Q 2881 22 2623 -34 
Q 2366 -91 2075 -91 
Q 1284 -91 818 406 
Q 353 903 353 1747 
Q 353 2603 823 3093 
Q 1294 3584 2113 3584 
Q 2378 3584 2631 3529 
Q 2884 3475 3122 3366 
z
" transform="scale(0.015625)"/>
      <path id="DejaVuSans-64" d="M 2906 2969 
L 2906 4863 
L 3481 4863 
L 3481 0 
L 2906 0 
L 2906 525 
Q 2725 213 2448 61 
Q 2172 -91 1784 -91 
Q 1150 -91 751 415 
Q 353 922 353 1747 
Q 353 2572 751 3078 
Q 1150 3584 1784 3584 
Q 2172 3584 2448 3432 
Q 2725 3281 2906 2969 
z
M 947 1747 
Q 947 1113 1208 752 
Q 1469 391 1925 391 
Q 2381 391 2643 752 
Q 2906 1113 2906 1747 
Q 2906 2381 2643 2742 
Q 2381 3103 1925 3103 
Q 1469 3103 1208 2742 
Q 947 2381 947 1747 
z
" transform="scale(0.015625)"/>
      <path id="DejaVuSans-29" d="M 513 4856 
L 1013 4856 
Q 1481 4119 1714 3412 
Q 1947 2706 1947 2009 
Q 1947 1309 1714 600 
Q 1481 -109 1013 -844 
L 513 -844 
Q 928 -128 1133 580 
Q 1338 1288 1338 2009 
Q 1338 2731 1133 3434 
Q 928 4138 513 4856 
z
" transform="scale(0.015625)"/>
     </defs>
     <use xlink:href="#DejaVuSans-50"/>
     <use xlink:href="#DejaVuSans-65" transform="translate(56.677734 0)"/>
     <use xlink:href="#DejaVuSans-72" transform="translate(118.201172 0)"/>
     <use xlink:href="#DejaVuSans-2d" transform="translate(152.939453 0)"/>
     <use xlink:href="#DejaVuSans-74" transform="translate(189.023438 0)"/>
     <use xlink:href="#DejaVuSans-69" transform="translate(228.232422 0)"/>
     <use xlink:href="#DejaVuSans-73" transform="translate(256.015625 0)"/>
     <use xlink:href="#DejaVuSans-73" transform="translate(308.115234 0)"/>
     <use xlink:href="#DejaVuSans-75" transform="translate(360.214844 0)"/>
     <use xlink:href="#DejaVuSans-65" transform="translate(423.59375 0)"/>
     <use xlink:href="#DejaVuSans-20" transform="translate(485.117188 0)"/>
     <use xlink:href="#DejaVuSans-70" transform="translate(516.904297 0)"/>
     <use xlink:href="#DejaVuSans-72" transform="translate(580.380859 0)"/>
     <use xlink:href="#DejaVuSans-6f" transform="translate(619.244141 0)"/>
     <use xlink:href="#DejaVuSans-62" transform="translate(680.425781 0)"/>
     <use xlink:href="#DejaVuSans-65" transform="translate(743.902344 0)"/>
     <use xlink:href="#DejaVuSans-20" transform="translate(805.425781 0)"/>
     <use xlink:href="#DejaVuSans-76" transform="translate(837.212891 0)"/>
     <use xlink:href="#DejaVuSans-73" transform="translate(896.392578 0)"/>
     <use xlink:href="#DejaVuSans-20" transform="translate(948.492188 0)"/>
     <use xlink:href="#DejaVuSans-50" transform="translate(980.279297 0)"/>
     <use xlink:href="#DejaVuSans-61" transform="translate(1036.082031 0)"/>
     <use xlink:href="#DejaVuSans-6e" transform="translate(1097.361328 0)"/>
     <use xlink:href="#DejaVuSans-67" transform="translate(1160.740234 0)"/>
     <use xlink:href="#DejaVuSans-6f" transform="translate(1224.216797 0)"/>
     <use xlink:href="#DejaVuSans-6c" transform="translate(1285.398438 0)"/>
     <use xlink:href="#DejaVuSans-69" transform="translate(1313.181641 0)"/>
     <use xlink:href="#DejaVuSans-6e" transform="translate(1340.964844 0)"/>
     <use xlink:href="#DejaVuSans-20" transform="translate(1404.34375 0)"/>
     <use xlink:href="#DejaVuSans-50" transform="translate(1436.130859 0)"/>
     <use xlink:href="#DejaVuSans-28" transform="translate(1496.433594 0)"/>
     <use xlink:href="#DejaVuSans-73" transform="translate(1535.447266 0)"/>
     <use xlink:href="#DejaVuSans-70" transform="translate(1587.546875 0)"/>
     <use xlink:href="#DejaVuSans-6c" transform="translate(1651.023438 0)"/>
     <use xlink:href="#DejaVuSans-69" transform="translate(1678.806641 0)"/>
     <use xlink:href="#DejaVuSans-63" transform="translate(1706.589844 0)"/>
     <use xlink:href="#DejaVuSans-65" transform="translate(1761.570312 0)"/>
     <use xlink:href="#DejaVuSans-64" transform="translate(1823.09375 0)"/>
     <use xlink:href="#DejaVuSans-29" transform="translate(1886.570312 0)"/>
    </g>
   </g>
   <g id="legend_1">
    <g id="patch_21">
     <path d="M 61.133693 379.404664 
L 77.133693 379.404664 
L 77.133693 373.804664 
L 61.133693 373.804664 
z
" style="fill: #e74c3c; stroke: #000000; stroke-width: 1.6; stroke-linejoin: miter"/>
    </g>
    <g id="text_31">
     <!-- Pangolin heart -->
     <g transform="translate(83.533693 379.404664) scale(0.08 -0.08)">
      <use xlink:href="#DejaVuSans-50"/>
      <use xlink:href="#DejaVuSans-61" transform="translate(55.802734 0)"/>
      <use xlink:href="#DejaVuSans-6e" transform="translate(117.082031 0)"/>
      <use xlink:href="#DejaVuSans-67" transform="translate(180.460938 0)"/>
      <use xlink:href="#DejaVuSans-6f" transform="translate(243.9375 0)"/>
      <use xlink:href="#DejaVuSans-6c" transform="translate(305.119141 0)"/>
      <use xlink:href="#DejaVuSans-69" transform="translate(332.902344 0)"/>
      <use xlink:href="#DejaVuSans-6e" transform="translate(360.685547 0)"/>
      <use xlink:href="#DejaVuSans-20" transform="translate(424.064453 0)"/>
      <use xlink:href="#DejaVuSans-68" transform="translate(455.851562 0)"/>
      <use xlink:href="#DejaVuSans-65" transform="translate(519.230469 0)"/>
      <use xlink:href="#DejaVuSans-61" transform="translate(580.753906 0)"/>
      <use xlink:href="#DejaVuSans-72" transform="translate(642.033203 0)"/>
      <use xlink:href="#DejaVuSans-74" transform="translate(683.146484 0)"/>
     </g>
    </g>
    <g id="patch_22">
     <path d="M 157.321193 379.404664 
L 173.321193 379.404664 
L 173.321193 373.804664 
L 157.321193 373.804664 
z
" style="fill: #f39c12; stroke: #ffffff; stroke-width: 0.5; stroke-linejoin: miter"/>
    </g>
    <g id="text_32">
     <!-- Pangolin liver -->
     <g transform="translate(179.721193 379.404664) scale(0.08 -0.08)">
      <use xlink:href="#DejaVuSans-50"/>
      <use xlink:href="#DejaVuSans-61" transform="translate(55.802734 0)"/>
      <use xlink:href="#DejaVuSans-6e" transform="translate(117.082031 0)"/>
      <use xlink:href="#DejaVuSans-67" transform="translate(180.460938 0)"/>
      <use xlink:href="#DejaVuSans-6f" transform="translate(243.9375 0)"/>
      <use xlink:href="#DejaVuSans-6c" transform="translate(305.119141 0)"/>
      <use xlink:href="#DejaVuSans-69" transform="translate(332.902344 0)"/>
      <use xlink:href="#DejaVuSans-6e" transform="translate(360.685547 0)"/>
      <use xlink:href="#DejaVuSans-20" transform="translate(424.064453 0)"/>
      <use xlink:href="#DejaVuSans-6c" transform="translate(455.851562 0)"/>
      <use xlink:href="#DejaVuSans-69" transform="translate(483.634766 0)"/>
      <use xlink:href="#DejaVuSans-76" transform="translate(511.417969 0)"/>
      <use xlink:href="#DejaVuSans-65" transform="translate(570.597656 0)"/>
      <use xlink:href="#DejaVuSans-72" transform="translate(632.121094 0)"/>
     </g>
    </g>
    <g id="patch_23">
     <path d="M 249.579943 379.404664 
L 265.579943 379.404664 
L 265.579943 373.804664 
L 249.579943 373.804664 
z
" style="fill: #9b59b6; stroke: #ffffff; stroke-width: 0.5; stroke-linejoin: miter"/>
    </g>
    <g id="text_33">
     <!-- Pangolin brain -->
     <g transform="translate(271.979943 379.404664) scale(0.08 -0.08)">
      <use xlink:href="#DejaVuSans-50"/>
      <use xlink:href="#DejaVuSans-61" transform="translate(55.802734 0)"/>
      <use xlink:href="#DejaVuSans-6e" transform="translate(117.082031 0)"/>
      <use xlink:href="#DejaVuSans-67" transform="translate(180.460938 0)"/>
      <use xlink:href="#DejaVuSans-6f" transform="translate(243.9375 0)"/>
      <use xlink:href="#DejaVuSans-6c" transform="translate(305.119141 0)"/>
      <use xlink:href="#DejaVuSans-69" transform="translate(332.902344 0)"/>
      <use xlink:href="#DejaVuSans-6e" transform="translate(360.685547 0)"/>
      <use xlink:href="#DejaVuSans-20" transform="translate(424.064453 0)"/>
      <use xlink:href="#DejaVuSans-62" transform="translate(455.851562 0)"/>
      <use xlink:href="#DejaVuSans-72" transform="translate(519.328125 0)"/>
      <use xlink:href="#DejaVuSans-61" transform="translate(560.441406 0)"/>
      <use xlink:href="#DejaVuSans-69" transform="translate(621.720703 0)"/>
      <use xlink:href="#DejaVuSans-6e" transform="translate(649.503906 0)"/>
     </g>
    </g>
    <g id="patch_24">
     <path d="M 345.009943 379.404664 
L 361.009943 379.404664 
L 361.009943 373.804664 
L 345.009943 373.804664 
z
" style="fill: #3498db; stroke: #ffffff; stroke-width: 0.5; stroke-linejoin: miter"/>
    </g>
    <g id="text_34">
     <!-- Pangolin testis -->
     <g transform="translate(367.409943 379.404664) scale(0.08 -0.08)">
      <use xlink:href="#DejaVuSans-50"/>
      <use xlink:href="#DejaVuSans-61" transform="translate(55.802734 0)"/>
      <use xlink:href="#DejaVuSans-6e" transform="translate(117.082031 0)"/>
      <use xlink:href="#DejaVuSans-67" transform="translate(180.460938 0)"/>
      <use xlink:href="#DejaVuSans-6f" transform="translate(243.9375 0)"/>
      <use xlink:href="#DejaVuSans-6c" transform="translate(305.119141 0)"/>
      <use xlink:href="#DejaVuSans-69" transform="translate(332.902344 0)"/>
      <use xlink:href="#DejaVuSans-6e" transform="translate(360.685547 0)"/>
      <use xlink:href="#DejaVuSans-20" transform="translate(424.064453 0)"/>
      <use xlink:href="#DejaVuSans-74" transform="translate(455.851562 0)"/>
      <use xlink:href="#DejaVuSans-65" transform="translate(495.060547 0)"/>
      <use xlink:href="#DejaVuSans-73" transform="translate(556.583984 0)"/>
      <use xlink:href="#DejaVuSans-74" transform="translate(608.683594 0)"/>
      <use xlink:href="#DejaVuSans-69" transform="translate(647.892578 0)"/>
      <use xlink:href="#DejaVuSans-73" transform="translate(675.675781 0)"/>
     </g>
    </g>
   </g>
  </g>
  <g id="axes_2">
   <g id="patch_25">
    <path d="M 512.74375 343.04992 
L 899.219886 343.04992 
L 899.219886 54.6 
L 512.74375 54.6 
z
" style="fill: #ffffff"/>
   </g>
   <g id="patch_26">
    <path d="M 530.310847 4913.64669 
L 548.802528 4913.64669 
L 548.802528 177.825028 
L 530.310847 177.825028 
z
" clip-path="url(#pd8f914a50d)" style="fill: #e74c3c; stroke: #000000; stroke-width: 1.6; stroke-linejoin: miter"/>
   </g>
   <g id="patch_27">
    <path d="M 622.769253 4913.64669 
L 641.260934 4913.64669 
L 641.260934 108.181653 
L 622.769253 108.181653 
z
" clip-path="url(#pd8f914a50d)" style="fill: #e74c3c; stroke: #ffffff; stroke-width: 0.5; stroke-linejoin: miter"/>
   </g>
   <g id="patch_28">
    <path d="M 715.227659 4913.64669 
L 733.71934 4913.64669 
L 733.71934 163.422915 
L 715.227659 163.422915 
z
" clip-path="url(#pd8f914a50d)" style="fill: #e74c3c; stroke: #ffffff; stroke-width: 0.5; stroke-linejoin: miter"/>
   </g>
   <g id="patch_29">
    <path d="M 807.686065 4913.64669 
L 826.177746 4913.64669 
L 826.177746 236.019169 
L 807.686065 236.019169 
z
" clip-path="url(#pd8f914a50d)" style="fill: #e74c3c; stroke: #ffffff; stroke-width: 0.5; stroke-linejoin: miter"/>
   </g>
   <g id="patch_30">
    <path d="M 548.802528 4913.64669 
L 567.294209 4913.64669 
L 567.294209 209.796635 
L 548.802528 209.796635 
z
" clip-path="url(#pd8f914a50d)" style="fill: #f39c12; stroke: #ffffff; stroke-width: 0.5; stroke-linejoin: miter"/>
   </g>
   <g id="patch_31">
    <path d="M 641.260934 4913.64669 
L 659.752615 4913.64669 
L 659.752615 106.810385 
L 641.260934 106.810385 
z
" clip-path="url(#pd8f914a50d)" style="fill: #f39c12; stroke: #000000; stroke-width: 1.6; stroke-linejoin: miter"/>
   </g>
   <g id="patch_32">
    <path d="M 733.71934 4913.64669 
L 752.211021 4913.64669 
L 752.211021 176.060881 
L 733.71934 176.060881 
z
" clip-path="url(#pd8f914a50d)" style="fill: #f39c12; stroke: #ffffff; stroke-width: 0.5; stroke-linejoin: miter"/>
   </g>
   <g id="patch_33">
    <path d="M 826.177746 4913.64669 
L 844.669427 4913.64669 
L 844.669427 240.576957 
L 826.177746 240.576957 
z
" clip-path="url(#pd8f914a50d)" style="fill: #f39c12; stroke: #ffffff; stroke-width: 0.5; stroke-linejoin: miter"/>
   </g>
   <g id="patch_34">
    <path d="M 567.294209 4913.64669 
L 585.785891 4913.64669 
L 585.785891 226.225829 
L 567.294209 226.225829 
z
" clip-path="url(#pd8f914a50d)" style="fill: #9b59b6; stroke: #ffffff; stroke-width: 0.5; stroke-linejoin: miter"/>
   </g>
   <g id="patch_35">
    <path d="M 659.752615 4913.64669 
L 678.244296 4913.64669 
L 678.244296 159.615238 
L 659.752615 159.615238 
z
" clip-path="url(#pd8f914a50d)" style="fill: #9b59b6; stroke: #ffffff; stroke-width: 0.5; stroke-linejoin: miter"/>
   </g>
   <g id="patch_36">
    <path d="M 752.211021 4913.64669 
L 770.702702 4913.64669 
L 770.702702 188.121989 
L 752.211021 188.121989 
z
" clip-path="url(#pd8f914a50d)" style="fill: #9b59b6; stroke: #000000; stroke-width: 1.6; stroke-linejoin: miter"/>
   </g>
   <g id="patch_37">
    <path d="M 844.669427 4913.64669 
L 863.161108 4913.64669 
L 863.161108 275.458756 
L 844.669427 275.458756 
z
" clip-path="url(#pd8f914a50d)" style="fill: #9b59b6; stroke: #ffffff; stroke-width: 0.5; stroke-linejoin: miter"/>
   </g>
   <g id="patch_38">
    <path d="M 585.785891 4913.64669 
L 604.277572 4913.64669 
L 604.277572 316.944728 
L 585.785891 316.944728 
z
" clip-path="url(#pd8f914a50d)" style="fill: #3498db; stroke: #ffffff; stroke-width: 0.5; stroke-linejoin: miter"/>
   </g>
   <g id="patch_39">
    <path d="M 678.244296 4913.64669 
L 696.735978 4913.64669 
L 696.735978 216.370176 
L 678.244296 216.370176 
z
" clip-path="url(#pd8f914a50d)" style="fill: #3498db; stroke: #ffffff; stroke-width: 0.5; stroke-linejoin: miter"/>
   </g>
   <g id="patch_40">
    <path d="M 770.702702 4913.64669 
L 789.194383 4913.64669 
L 789.194383 315.024602 
L 770.702702 315.024602 
z
" clip-path="url(#pd8f914a50d)" style="fill: #3498db; stroke: #ffffff; stroke-width: 0.5; stroke-linejoin: miter"/>
   </g>
   <g id="patch_41">
    <path d="M 863.161108 4913.64669 
L 881.652789 4913.64669 
L 881.652789 254.562919 
L 863.161108 254.562919 
z
" clip-path="url(#pd8f914a50d)" style="fill: #3498db; stroke: #000000; stroke-width: 1.6; stroke-linejoin: miter"/>
   </g>
   <g id="matplotlib.axis_3">
    <g id="xtick_5">
     <g id="line2d_21">
      <g>
       <use xlink:href="#m7082f07b1a" x="567.294209" y="343.04992" style="stroke: #000000; stroke-width: 0.8"/>
      </g>
     </g>
     <g id="text_35">
      <!-- probe -->
      <g transform="translate(552.866866 357.648357) scale(0.1 -0.1)">
       <use xlink:href="#DejaVuSans-70"/>
       <use xlink:href="#DejaVuSans-72" transform="translate(63.476562 0)"/>
       <use xlink:href="#DejaVuSans-6f" transform="translate(102.339844 0)"/>
       <use xlink:href="#DejaVuSans-62" transform="translate(163.521484 0)"/>
       <use xlink:href="#DejaVuSans-65" transform="translate(226.998047 0)"/>
      </g>
      <!-- heart -->
      <g transform="translate(553.969209 368.84617) scale(0.1 -0.1)">
       <use xlink:href="#DejaVuSans-68"/>
       <use xlink:href="#DejaVuSans-65" transform="translate(63.378906 0)"/>
       <use xlink:href="#DejaVuSans-61" transform="translate(124.902344 0)"/>
       <use xlink:href="#DejaVuSans-72" transform="translate(186.181641 0)"/>
       <use xlink:href="#DejaVuSans-74" transform="translate(227.294922 0)"/>
      </g>
     </g>
    </g>
    <g id="xtick_6">
     <g id="line2d_22">
      <g>
       <use xlink:href="#m7082f07b1a" x="659.752615" y="343.04992" style="stroke: #000000; stroke-width: 0.8"/>
      </g>
     </g>
     <g id="text_36">
      <!-- probe -->
      <g transform="translate(645.325272 357.648357) scale(0.1 -0.1)">
       <use xlink:href="#DejaVuSans-70"/>
       <use xlink:href="#DejaVuSans-72" transform="translate(63.476562 0)"/>
       <use xlink:href="#DejaVuSans-6f" transform="translate(102.339844 0)"/>
       <use xlink:href="#DejaVuSans-62" transform="translate(163.521484 0)"/>
       <use xlink:href="#DejaVuSans-65" transform="translate(226.998047 0)"/>
      </g>
      <!-- liver -->
      <g transform="translate(648.883084 368.84617) scale(0.1 -0.1)">
       <use xlink:href="#DejaVuSans-6c"/>
       <use xlink:href="#DejaVuSans-69" transform="translate(27.783203 0)"/>
       <use xlink:href="#DejaVuSans-76" transform="translate(55.566406 0)"/>
       <use xlink:href="#DejaVuSans-65" transform="translate(114.746094 0)"/>
       <use xlink:href="#DejaVuSans-72" transform="translate(176.269531 0)"/>
      </g>
     </g>
    </g>
    <g id="xtick_7">
     <g id="line2d_23">
      <g>
       <use xlink:href="#m7082f07b1a" x="752.211021" y="343.04992" style="stroke: #000000; stroke-width: 0.8"/>
      </g>
     </g>
     <g id="text_37">
      <!-- probe -->
      <g transform="translate(737.783677 357.648357) scale(0.1 -0.1)">
       <use xlink:href="#DejaVuSans-70"/>
       <use xlink:href="#DejaVuSans-72" transform="translate(63.476562 0)"/>
       <use xlink:href="#DejaVuSans-6f" transform="translate(102.339844 0)"/>
       <use xlink:href="#DejaVuSans-62" transform="translate(163.521484 0)"/>
       <use xlink:href="#DejaVuSans-65" transform="translate(226.998047 0)"/>
      </g>
      <!-- brain -->
      <g transform="translate(739.359459 368.84617) scale(0.1 -0.1)">
       <use xlink:href="#DejaVuSans-62"/>
       <use xlink:href="#DejaVuSans-72" transform="translate(63.476562 0)"/>
       <use xlink:href="#DejaVuSans-61" transform="translate(104.589844 0)"/>
       <use xlink:href="#DejaVuSans-69" transform="translate(165.869141 0)"/>
       <use xlink:href="#DejaVuSans-6e" transform="translate(193.652344 0)"/>
      </g>
     </g>
    </g>
    <g id="xtick_8">
     <g id="line2d_24">
      <g>
       <use xlink:href="#m7082f07b1a" x="844.669427" y="343.04992" style="stroke: #000000; stroke-width: 0.8"/>
      </g>
     </g>
     <g id="text_38">
      <!-- probe -->
      <g transform="translate(830.242083 357.648357) scale(0.1 -0.1)">
       <use xlink:href="#DejaVuSans-70"/>
       <use xlink:href="#DejaVuSans-72" transform="translate(63.476562 0)"/>
       <use xlink:href="#DejaVuSans-6f" transform="translate(102.339844 0)"/>
       <use xlink:href="#DejaVuSans-62" transform="translate(163.521484 0)"/>
       <use xlink:href="#DejaVuSans-65" transform="translate(226.998047 0)"/>
      </g>
      <!-- testis -->
      <g transform="translate(831.074114 368.84617) scale(0.1 -0.1)">
       <use xlink:href="#DejaVuSans-74"/>
       <use xlink:href="#DejaVuSans-65" transform="translate(39.208984 0)"/>
       <use xlink:href="#DejaVuSans-73" transform="translate(100.732422 0)"/>
       <use xlink:href="#DejaVuSans-74" transform="translate(152.832031 0)"/>
       <use xlink:href="#DejaVuSans-69" transform="translate(192.041016 0)"/>
       <use xlink:href="#DejaVuSans-73" transform="translate(219.824219 0)"/>
      </g>
     </g>
    </g>
   </g>
   <g id="matplotlib.axis_4">
    <g id="ytick_9">
     <g id="line2d_25">
      <path d="M 512.74375 319.132827 
L 899.219886 319.132827 
" clip-path="url(#pd8f914a50d)" style="fill: none; stroke: #b0b0b0; stroke-opacity: 0.18; stroke-width: 0.6; stroke-linecap: square"/>
     </g>
     <g id="line2d_26">
      <g>
       <use xlink:href="#ma7f14450af" x="512.74375" y="319.132827" style="stroke: #000000; stroke-width: 0.8"/>
      </g>
     </g>
     <g id="text_39">
      <!-- 0.88 -->
      <g transform="translate(483.478125 322.932046) scale(0.1 -0.1)">
       <use xlink:href="#DejaVuSans-30"/>
       <use xlink:href="#DejaVuSans-2e" transform="translate(63.623047 0)"/>
       <use xlink:href="#DejaVuSans-38" transform="translate(95.410156 0)"/>
       <use xlink:href="#DejaVuSans-38" transform="translate(159.033203 0)"/>
      </g>
     </g>
    </g>
    <g id="ytick_10">
     <g id="line2d_27">
      <path d="M 512.74375 266.922443 
L 899.219886 266.922443 
" clip-path="url(#pd8f914a50d)" style="fill: none; stroke: #b0b0b0; stroke-opacity: 0.18; stroke-width: 0.6; stroke-linecap: square"/>
     </g>
     <g id="line2d_28">
      <g>
       <use xlink:href="#ma7f14450af" x="512.74375" y="266.922443" style="stroke: #000000; stroke-width: 0.8"/>
      </g>
     </g>
     <g id="text_40">
      <!-- 0.89 -->
      <g transform="translate(483.478125 270.721661) scale(0.1 -0.1)">
       <use xlink:href="#DejaVuSans-30"/>
       <use xlink:href="#DejaVuSans-2e" transform="translate(63.623047 0)"/>
       <use xlink:href="#DejaVuSans-38" transform="translate(95.410156 0)"/>
       <use xlink:href="#DejaVuSans-39" transform="translate(159.033203 0)"/>
      </g>
     </g>
    </g>
    <g id="ytick_11">
     <g id="line2d_29">
      <path d="M 512.74375 214.712058 
L 899.219886 214.712058 
" clip-path="url(#pd8f914a50d)" style="fill: none; stroke: #b0b0b0; stroke-opacity: 0.18; stroke-width: 0.6; stroke-linecap: square"/>
     </g>
     <g id="line2d_30">
      <g>
       <use xlink:href="#ma7f14450af" x="512.74375" y="214.712058" style="stroke: #000000; stroke-width: 0.8"/>
      </g>
     </g>
     <g id="text_41">
      <!-- 0.90 -->
      <g transform="translate(483.478125 218.511277) scale(0.1 -0.1)">
       <use xlink:href="#DejaVuSans-30"/>
       <use xlink:href="#DejaVuSans-2e" transform="translate(63.623047 0)"/>
       <use xlink:href="#DejaVuSans-39" transform="translate(95.410156 0)"/>
       <use xlink:href="#DejaVuSans-30" transform="translate(159.033203 0)"/>
      </g>
     </g>
    </g>
    <g id="ytick_12">
     <g id="line2d_31">
      <path d="M 512.74375 162.501673 
L 899.219886 162.501673 
" clip-path="url(#pd8f914a50d)" style="fill: none; stroke: #b0b0b0; stroke-opacity: 0.18; stroke-width: 0.6; stroke-linecap: square"/>
     </g>
     <g id="line2d_32">
      <g>
       <use xlink:href="#ma7f14450af" x="512.74375" y="162.501673" style="stroke: #000000; stroke-width: 0.8"/>
      </g>
     </g>
     <g id="text_42">
      <!-- 0.91 -->
      <g transform="translate(483.478125 166.300892) scale(0.1 -0.1)">
       <use xlink:href="#DejaVuSans-30"/>
       <use xlink:href="#DejaVuSans-2e" transform="translate(63.623047 0)"/>
       <use xlink:href="#DejaVuSans-39" transform="translate(95.410156 0)"/>
       <use xlink:href="#DejaVuSans-31" transform="translate(159.033203 0)"/>
      </g>
     </g>
    </g>
    <g id="ytick_13">
     <g id="line2d_33">
      <path d="M 512.74375 110.291288 
L 899.219886 110.291288 
" clip-path="url(#pd8f914a50d)" style="fill: none; stroke: #b0b0b0; stroke-opacity: 0.18; stroke-width: 0.6; stroke-linecap: square"/>
     </g>
     <g id="line2d_34">
      <g>
       <use xlink:href="#ma7f14450af" x="512.74375" y="110.291288" style="stroke: #000000; stroke-width: 0.8"/>
      </g>
     </g>
     <g id="text_43">
      <!-- 0.92 -->
      <g transform="translate(483.478125 114.090507) scale(0.1 -0.1)">
       <use xlink:href="#DejaVuSans-30"/>
       <use xlink:href="#DejaVuSans-2e" transform="translate(63.623047 0)"/>
       <use xlink:href="#DejaVuSans-39" transform="translate(95.410156 0)"/>
       <use xlink:href="#DejaVuSans-32" transform="translate(159.033203 0)"/>
      </g>
     </g>
    </g>
    <g id="ytick_14">
     <g id="line2d_35">
      <path d="M 512.74375 58.080903 
L 899.219886 58.080903 
" clip-path="url(#pd8f914a50d)" style="fill: none; stroke: #b0b0b0; stroke-opacity: 0.18; stroke-width: 0.6; stroke-linecap: square"/>
     </g>
     <g id="line2d_36">
      <g>
       <use xlink:href="#ma7f14450af" x="512.74375" y="58.080903" style="stroke: #000000; stroke-width: 0.8"/>
      </g>
     </g>
     <g id="text_44">
      <!-- 0.93 -->
      <g transform="translate(483.478125 61.880122) scale(0.1 -0.1)">
       <use xlink:href="#DejaVuSans-30"/>
       <use xlink:href="#DejaVuSans-2e" transform="translate(63.623047 0)"/>
       <use xlink:href="#DejaVuSans-39" transform="translate(95.410156 0)"/>
       <use xlink:href="#DejaVuSans-33" transform="translate(159.033203 0)"/>
      </g>
     </g>
    </g>
    <g id="text_45">
     <!-- Spearman ρ at true sites -->
     <g transform="translate(477.398438 260.835897) rotate(-90) scale(0.1 -0.1)">
      <use xlink:href="#DejaVuSans-53"/>
      <use xlink:href="#DejaVuSans-70" transform="translate(63.476562 0)"/>
      <use xlink:href="#DejaVuSans-65" transform="translate(126.953125 0)"/>
      <use xlink:href="#DejaVuSans-61" transform="translate(188.476562 0)"/>
      <use xlink:href="#DejaVuSans-72" transform="translate(249.755859 0)"/>
      <use xlink:href="#DejaVuSans-6d" transform="translate(289.119141 0)"/>
      <use xlink:href="#DejaVuSans-61" transform="translate(386.53125 0)"/>
      <use xlink:href="#DejaVuSans-6e" transform="translate(447.810547 0)"/>
      <use xlink:href="#DejaVuSans-20" transform="translate(511.189453 0)"/>
      <use xlink:href="#DejaVuSans-3c1" transform="translate(542.976562 0)"/>
      <use xlink:href="#DejaVuSans-20" transform="translate(606.453125 0)"/>
      <use xlink:href="#DejaVuSans-61" transform="translate(638.240234 0)"/>
      <use xlink:href="#DejaVuSans-74" transform="translate(699.519531 0)"/>
      <use xlink:href="#DejaVuSans-20" transform="translate(738.728516 0)"/>
      <use xlink:href="#DejaVuSans-74" transform="translate(770.515625 0)"/>
      <use xlink:href="#DejaVuSans-72" transform="translate(809.724609 0)"/>
      <use xlink:href="#DejaVuSans-75" transform="translate(850.837891 0)"/>
      <use xlink:href="#DejaVuSans-65" transform="translate(914.216797 0)"/>
      <use xlink:href="#DejaVuSans-20" transform="translate(975.740234 0)"/>
      <use xlink:href="#DejaVuSans-73" transform="translate(1007.527344 0)"/>
      <use xlink:href="#DejaVuSans-69" transform="translate(1059.626953 0)"/>
      <use xlink:href="#DejaVuSans-74" transform="translate(1087.410156 0)"/>
      <use xlink:href="#DejaVuSans-65" transform="translate(1126.619141 0)"/>
      <use xlink:href="#DejaVuSans-73" transform="translate(1188.142578 0)"/>
     </g>
    </g>
   </g>
   <g id="patch_42">
    <path d="M 512.74375 343.04992 
L 512.74375 54.6 
" style="fill: none; stroke: #000000; stroke-width: 0.8; stroke-linejoin: miter; stroke-linecap: square"/>
   </g>
   <g id="patch_43">
    <path d="M 512.74375 343.04992 
L 899.219886 343.04992 
" style="fill: none; stroke: #000000; stroke-width: 0.8; stroke-linejoin: miter; stroke-linecap: square"/>
   </g>
   <g id="text_46">
    <!-- 0.907 -->
    <g transform="translate(530.252547 172.296401) scale(0.065 -0.065)">
     <use xlink:href="#DejaVuSans-30"/>
     <use xlink:href="#DejaVuSans-2e" transform="translate(63.623047 0)"/>
     <use xlink:href="#DejaVuSans-39" transform="translate(95.410156 0)"/>
     <use xlink:href="#DejaVuSans-30" transform="translate(159.033203 0)"/>
     <use xlink:href="#DejaVuSans-37" transform="translate(222.65625 0)"/>
    </g>
   </g>
   <g id="text_47">
    <!-- 0.920 -->
    <g transform="translate(622.710953 102.653026) scale(0.065 -0.065)">
     <use xlink:href="#DejaVuSans-30"/>
     <use xlink:href="#DejaVuSans-2e" transform="translate(63.623047 0)"/>
     <use xlink:href="#DejaVuSans-39" transform="translate(95.410156 0)"/>
     <use xlink:href="#DejaVuSans-32" transform="translate(159.033203 0)"/>
     <use xlink:href="#DejaVuSans-30" transform="translate(222.65625 0)"/>
    </g>
   </g>
   <g id="text_48">
    <!-- 0.910 -->
    <g transform="translate(715.169359 157.894287) scale(0.065 -0.065)">
     <use xlink:href="#DejaVuSans-30"/>
     <use xlink:href="#DejaVuSans-2e" transform="translate(63.623047 0)"/>
     <use xlink:href="#DejaVuSans-39" transform="translate(95.410156 0)"/>
     <use xlink:href="#DejaVuSans-31" transform="translate(159.033203 0)"/>
     <use xlink:href="#DejaVuSans-30" transform="translate(222.65625 0)"/>
    </g>
   </g>
   <g id="text_49">
    <!-- 0.896 -->
    <g transform="translate(807.627765 230.490542) scale(0.065 -0.065)">
     <use xlink:href="#DejaVuSans-30"/>
     <use xlink:href="#DejaVuSans-2e" transform="translate(63.623047 0)"/>
     <use xlink:href="#DejaVuSans-38" transform="translate(95.410156 0)"/>
     <use xlink:href="#DejaVuSans-39" transform="translate(159.033203 0)"/>
     <use xlink:href="#DejaVuSans-36" transform="translate(222.65625 0)"/>
    </g>
   </g>
   <g id="text_50">
    <!-- 0.901 -->
    <g transform="translate(548.744228 204.268007) scale(0.065 -0.065)">
     <use xlink:href="#DejaVuSans-30"/>
     <use xlink:href="#DejaVuSans-2e" transform="translate(63.623047 0)"/>
     <use xlink:href="#DejaVuSans-39" transform="translate(95.410156 0)"/>
     <use xlink:href="#DejaVuSans-30" transform="translate(159.033203 0)"/>
     <use xlink:href="#DejaVuSans-31" transform="translate(222.65625 0)"/>
    </g>
   </g>
   <g id="text_51">
    <!-- 0.921 -->
    <g transform="translate(641.202634 101.281757) scale(0.065 -0.065)">
     <use xlink:href="#DejaVuSans-30"/>
     <use xlink:href="#DejaVuSans-2e" transform="translate(63.623047 0)"/>
     <use xlink:href="#DejaVuSans-39" transform="translate(95.410156 0)"/>
     <use xlink:href="#DejaVuSans-32" transform="translate(159.033203 0)"/>
     <use xlink:href="#DejaVuSans-31" transform="translate(222.65625 0)"/>
    </g>
   </g>
   <g id="text_52">
    <!-- 0.907 -->
    <g transform="translate(733.66104 170.532254) scale(0.065 -0.065)">
     <use xlink:href="#DejaVuSans-30"/>
     <use xlink:href="#DejaVuSans-2e" transform="translate(63.623047 0)"/>
     <use xlink:href="#DejaVuSans-39" transform="translate(95.410156 0)"/>
     <use xlink:href="#DejaVuSans-30" transform="translate(159.033203 0)"/>
     <use xlink:href="#DejaVuSans-37" transform="translate(222.65625 0)"/>
    </g>
   </g>
   <g id="text_53">
    <!-- 0.895 -->
    <g transform="translate(826.119446 235.048329) scale(0.065 -0.065)">
     <use xlink:href="#DejaVuSans-30"/>
     <use xlink:href="#DejaVuSans-2e" transform="translate(63.623047 0)"/>
     <use xlink:href="#DejaVuSans-38" transform="translate(95.410156 0)"/>
     <use xlink:href="#DejaVuSans-39" transform="translate(159.033203 0)"/>
     <use xlink:href="#DejaVuSans-35" transform="translate(222.65625 0)"/>
    </g>
   </g>
   <g id="text_54">
    <!-- 0.898 -->
    <g transform="translate(567.235909 220.697201) scale(0.065 -0.065)">
     <use xlink:href="#DejaVuSans-30"/>
     <use xlink:href="#DejaVuSans-2e" transform="translate(63.623047 0)"/>
     <use xlink:href="#DejaVuSans-38" transform="translate(95.410156 0)"/>
     <use xlink:href="#DejaVuSans-39" transform="translate(159.033203 0)"/>
     <use xlink:href="#DejaVuSans-38" transform="translate(222.65625 0)"/>
    </g>
   </g>
   <g id="text_55">
    <!-- 0.911 -->
    <g transform="translate(659.694315 154.08661) scale(0.065 -0.065)">
     <use xlink:href="#DejaVuSans-30"/>
     <use xlink:href="#DejaVuSans-2e" transform="translate(63.623047 0)"/>
     <use xlink:href="#DejaVuSans-39" transform="translate(95.410156 0)"/>
     <use xlink:href="#DejaVuSans-31" transform="translate(159.033203 0)"/>
     <use xlink:href="#DejaVuSans-31" transform="translate(222.65625 0)"/>
    </g>
   </g>
   <g id="text_56">
    <!-- 0.905 -->
    <g transform="translate(752.152721 182.593361) scale(0.065 -0.065)">
     <use xlink:href="#DejaVuSans-30"/>
     <use xlink:href="#DejaVuSans-2e" transform="translate(63.623047 0)"/>
     <use xlink:href="#DejaVuSans-39" transform="translate(95.410156 0)"/>
     <use xlink:href="#DejaVuSans-30" transform="translate(159.033203 0)"/>
     <use xlink:href="#DejaVuSans-35" transform="translate(222.65625 0)"/>
    </g>
   </g>
   <g id="text_57">
    <!-- 0.888 -->
    <g transform="translate(844.611127 269.930129) scale(0.065 -0.065)">
     <use xlink:href="#DejaVuSans-30"/>
     <use xlink:href="#DejaVuSans-2e" transform="translate(63.623047 0)"/>
     <use xlink:href="#DejaVuSans-38" transform="translate(95.410156 0)"/>
     <use xlink:href="#DejaVuSans-38" transform="translate(159.033203 0)"/>
     <use xlink:href="#DejaVuSans-38" transform="translate(222.65625 0)"/>
    </g>
   </g>
   <g id="text_58">
    <!-- 0.880 -->
    <g transform="translate(585.727591 311.4161) scale(0.065 -0.065)">
     <use xlink:href="#DejaVuSans-30"/>
     <use xlink:href="#DejaVuSans-2e" transform="translate(63.623047 0)"/>
     <use xlink:href="#DejaVuSans-38" transform="translate(95.410156 0)"/>
     <use xlink:href="#DejaVuSans-38" transform="translate(159.033203 0)"/>
     <use xlink:href="#DejaVuSans-30" transform="translate(222.65625 0)"/>
    </g>
   </g>
   <g id="text_59">
    <!-- 0.900 -->
    <g transform="translate(678.185996 210.841548) scale(0.065 -0.065)">
     <use xlink:href="#DejaVuSans-30"/>
     <use xlink:href="#DejaVuSans-2e" transform="translate(63.623047 0)"/>
     <use xlink:href="#DejaVuSans-39" transform="translate(95.410156 0)"/>
     <use xlink:href="#DejaVuSans-30" transform="translate(159.033203 0)"/>
     <use xlink:href="#DejaVuSans-30" transform="translate(222.65625 0)"/>
    </g>
   </g>
   <g id="text_60">
    <!-- 0.881 -->
    <g transform="translate(770.644402 309.495975) scale(0.065 -0.065)">
     <use xlink:href="#DejaVuSans-30"/>
     <use xlink:href="#DejaVuSans-2e" transform="translate(63.623047 0)"/>
     <use xlink:href="#DejaVuSans-38" transform="translate(95.410156 0)"/>
     <use xlink:href="#DejaVuSans-38" transform="translate(159.033203 0)"/>
     <use xlink:href="#DejaVuSans-31" transform="translate(222.65625 0)"/>
    </g>
   </g>
   <g id="text_61">
    <!-- 0.892 -->
    <g transform="translate(863.102808 249.034291) scale(0.065 -0.065)">
     <use xlink:href="#DejaVuSans-30"/>
     <use xlink:href="#DejaVuSans-2e" transform="translate(63.623047 0)"/>
     <use xlink:href="#DejaVuSans-38" transform="translate(95.410156 0)"/>
     <use xlink:href="#DejaVuSans-39" transform="translate(159.033203 0)"/>
     <use xlink:href="#DejaVuSans-32" transform="translate(222.65625 0)"/>
    </g>
   </g>
   <g id="text_62">
    <!-- Per-tissue probe vs Pangolin PSI -->
    <g transform="translate(618.565334 48.6) scale(0.11 -0.11)">
     <defs>
      <path id="DejaVuSans-49" d="M 628 4666 
L 1259 4666 
L 1259 0 
L 628 0 
L 628 4666 
z
" transform="scale(0.015625)"/>
     </defs>
     <use xlink:href="#DejaVuSans-50"/>
     <use xlink:href="#DejaVuSans-65" transform="translate(56.677734 0)"/>
     <use xlink:href="#DejaVuSans-72" transform="translate(118.201172 0)"/>
     <use xlink:href="#DejaVuSans-2d" transform="translate(152.939453 0)"/>
     <use xlink:href="#DejaVuSans-74" transform="translate(189.023438 0)"/>
     <use xlink:href="#DejaVuSans-69" transform="translate(228.232422 0)"/>
     <use xlink:href="#DejaVuSans-73" transform="translate(256.015625 0)"/>
     <use xlink:href="#DejaVuSans-73" transform="translate(308.115234 0)"/>
     <use xlink:href="#DejaVuSans-75" transform="translate(360.214844 0)"/>
     <use xlink:href="#DejaVuSans-65" transform="translate(423.59375 0)"/>
     <use xlink:href="#DejaVuSans-20" transform="translate(485.117188 0)"/>
     <use xlink:href="#DejaVuSans-70" transform="translate(516.904297 0)"/>
     <use xlink:href="#DejaVuSans-72" transform="translate(580.380859 0)"/>
     <use xlink:href="#DejaVuSans-6f" transform="translate(619.244141 0)"/>
     <use xlink:href="#DejaVuSans-62" transform="translate(680.425781 0)"/>
     <use xlink:href="#DejaVuSans-65" transform="translate(743.902344 0)"/>
     <use xlink:href="#DejaVuSans-20" transform="translate(805.425781 0)"/>
     <use xlink:href="#DejaVuSans-76" transform="translate(837.212891 0)"/>
     <use xlink:href="#DejaVuSans-73" transform="translate(896.392578 0)"/>
     <use xlink:href="#DejaVuSans-20" transform="translate(948.492188 0)"/>
     <use xlink:href="#DejaVuSans-50" transform="translate(980.279297 0)"/>
     <use xlink:href="#DejaVuSans-61" transform="translate(1036.082031 0)"/>
     <use xlink:href="#DejaVuSans-6e" transform="translate(1097.361328 0)"/>
     <use xlink:href="#DejaVuSans-67" transform="translate(1160.740234 0)"/>
     <use xlink:href="#DejaVuSans-6f" transform="translate(1224.216797 0)"/>
     <use xlink:href="#DejaVuSans-6c" transform="translate(1285.398438 0)"/>
     <use xlink:href="#DejaVuSans-69" transform="translate(1313.181641 0)"/>
     <use xlink:href="#DejaVuSans-6e" transform="translate(1340.964844 0)"/>
     <use xlink:href="#DejaVuSans-20" transform="translate(1404.34375 0)"/>
     <use xlink:href="#DejaVuSans-50" transform="translate(1436.130859 0)"/>
     <use xlink:href="#DejaVuSans-53" transform="translate(1496.433594 0)"/>
     <use xlink:href="#DejaVuSans-49" transform="translate(1559.910156 0)"/>
    </g>
   </g>
   <g id="legend_2">
    <g id="patch_44">
     <path d="M 523.733693 379.404664 
L 539.733693 379.404664 
L 539.733693 373.804664 
L 523.733693 373.804664 
z
" style="fill: #e74c3c; stroke: #000000; stroke-width: 1.6; stroke-linejoin: miter"/>
    </g>
    <g id="text_63">
     <!-- Pangolin heart -->
     <g transform="translate(546.133693 379.404664) scale(0.08 -0.08)">
      <use xlink:href="#DejaVuSans-50"/>
      <use xlink:href="#DejaVuSans-61" transform="translate(55.802734 0)"/>
      <use xlink:href="#DejaVuSans-6e" transform="translate(117.082031 0)"/>
      <use xlink:href="#DejaVuSans-67" transform="translate(180.460938 0)"/>
      <use xlink:href="#DejaVuSans-6f" transform="translate(243.9375 0)"/>
      <use xlink:href="#DejaVuSans-6c" transform="translate(305.119141 0)"/>
      <use xlink:href="#DejaVuSans-69" transform="translate(332.902344 0)"/>
      <use xlink:href="#DejaVuSans-6e" transform="translate(360.685547 0)"/>
      <use xlink:href="#DejaVuSans-20" transform="translate(424.064453 0)"/>
      <use xlink:href="#DejaVuSans-68" transform="translate(455.851562 0)"/>
      <use xlink:href="#DejaVuSans-65" transform="translate(519.230469 0)"/>
      <use xlink:href="#DejaVuSans-61" transform="translate(580.753906 0)"/>
      <use xlink:href="#DejaVuSans-72" transform="translate(642.033203 0)"/>
      <use xlink:href="#DejaVuSans-74" transform="translate(683.146484 0)"/>
     </g>
    </g>
    <g id="patch_45">
     <path d="M 619.921193 379.404664 
L 635.921193 379.404664 
L 635.921193 373.804664 
L 619.921193 373.804664 
z
" style="fill: #f39c12; stroke: #ffffff; stroke-width: 0.5; stroke-linejoin: miter"/>
    </g>
    <g id="text_64">
     <!-- Pangolin liver -->
     <g transform="translate(642.321193 379.404664) scale(0.08 -0.08)">
      <use xlink:href="#DejaVuSans-50"/>
      <use xlink:href="#DejaVuSans-61" transform="translate(55.802734 0)"/>
      <use xlink:href="#DejaVuSans-6e" transform="translate(117.082031 0)"/>
      <use xlink:href="#DejaVuSans-67" transform="translate(180.460938 0)"/>
      <use xlink:href="#DejaVuSans-6f" transform="translate(243.9375 0)"/>
      <use xlink:href="#DejaVuSans-6c" transform="translate(305.119141 0)"/>
      <use xlink:href="#DejaVuSans-69" transform="translate(332.902344 0)"/>
      <use xlink:href="#DejaVuSans-6e" transform="translate(360.685547 0)"/>
      <use xlink:href="#DejaVuSans-20" transform="translate(424.064453 0)"/>
      <use xlink:href="#DejaVuSans-6c" transform="translate(455.851562 0)"/>
      <use xlink:href="#DejaVuSans-69" transform="translate(483.634766 0)"/>
      <use xlink:href="#DejaVuSans-76" transform="translate(511.417969 0)"/>
      <use xlink:href="#DejaVuSans-65" transform="translate(570.597656 0)"/>
      <use xlink:href="#DejaVuSans-72" transform="translate(632.121094 0)"/>
     </g>
    </g>
    <g id="patch_46">
     <path d="M 712.179943 379.404664 
L 728.179943 379.404664 
L 728.179943 373.804664 
L 712.179943 373.804664 
z
" style="fill: #9b59b6; stroke: #ffffff; stroke-width: 0.5; stroke-linejoin: miter"/>
    </g>
    <g id="text_65">
     <!-- Pangolin brain -->
     <g transform="translate(734.579943 379.404664) scale(0.08 -0.08)">
      <use xlink:href="#DejaVuSans-50"/>
      <use xlink:href="#DejaVuSans-61" transform="translate(55.802734 0)"/>
      <use xlink:href="#DejaVuSans-6e" transform="translate(117.082031 0)"/>
      <use xlink:href="#DejaVuSans-67" transform="translate(180.460938 0)"/>
      <use xlink:href="#DejaVuSans-6f" transform="translate(243.9375 0)"/>
      <use xlink:href="#DejaVuSans-6c" transform="translate(305.119141 0)"/>
      <use xlink:href="#DejaVuSans-69" transform="translate(332.902344 0)"/>
      <use xlink:href="#DejaVuSans-6e" transform="translate(360.685547 0)"/>
      <use xlink:href="#DejaVuSans-20" transform="translate(424.064453 0)"/>
      <use xlink:href="#DejaVuSans-62" transform="translate(455.851562 0)"/>
      <use xlink:href="#DejaVuSans-72" transform="translate(519.328125 0)"/>
      <use xlink:href="#DejaVuSans-61" transform="translate(560.441406 0)"/>
      <use xlink:href="#DejaVuSans-69" transform="translate(621.720703 0)"/>
      <use xlink:href="#DejaVuSans-6e" transform="translate(649.503906 0)"/>
     </g>
    </g>
    <g id="patch_47">
     <path d="M 807.609943 379.404664 
L 823.609943 379.404664 
L 823.609943 373.804664 
L 807.609943 373.804664 
z
" style="fill: #3498db; stroke: #ffffff; stroke-width: 0.5; stroke-linejoin: miter"/>
    </g>
    <g id="text_66">
     <!-- Pangolin testis -->
     <g transform="translate(830.009943 379.404664) scale(0.08 -0.08)">
      <use xlink:href="#DejaVuSans-50"/>
      <use xlink:href="#DejaVuSans-61" transform="translate(55.802734 0)"/>
      <use xlink:href="#DejaVuSans-6e" transform="translate(117.082031 0)"/>
      <use xlink:href="#DejaVuSans-67" transform="translate(180.460938 0)"/>
      <use xlink:href="#DejaVuSans-6f" transform="translate(243.9375 0)"/>
      <use xlink:href="#DejaVuSans-6c" transform="translate(305.119141 0)"/>
      <use xlink:href="#DejaVuSans-69" transform="translate(332.902344 0)"/>
      <use xlink:href="#DejaVuSans-6e" transform="translate(360.685547 0)"/>
      <use xlink:href="#DejaVuSans-20" transform="translate(424.064453 0)"/>
      <use xlink:href="#DejaVuSans-74" transform="translate(455.851562 0)"/>
      <use xlink:href="#DejaVuSans-65" transform="translate(495.060547 0)"/>
      <use xlink:href="#DejaVuSans-73" transform="translate(556.583984 0)"/>
      <use xlink:href="#DejaVuSans-74" transform="translate(608.683594 0)"/>
      <use xlink:href="#DejaVuSans-69" transform="translate(647.892578 0)"/>
      <use xlink:href="#DejaVuSans-73" transform="translate(675.675781 0)"/>
     </g>
    </g>
   </g>
  </g>
  <g id="text_67">
   <!-- Tissue-specificity of probe outputs at true splice sites (chr1+chr9, black-outlined bars = matched tissue) -->
   <g transform="translate(148.357813 16.318125) scale(0.12 -0.12)">
    <defs>
     <path id="DejaVuSans-54" d="M -19 4666 
L 3928 4666 
L 3928 4134 
L 2272 4134 
L 2272 0 
L 1638 0 
L 1638 4134 
L -19 4134 
L -19 4666 
z
" transform="scale(0.015625)"/>
     <path id="DejaVuSans-66" d="M 2375 4863 
L 2375 4384 
L 1825 4384 
Q 1516 4384 1395 4259 
Q 1275 4134 1275 3809 
L 1275 3500 
L 2222 3500 
L 2222 3053 
L 1275 3053 
L 1275 0 
L 697 0 
L 697 3053 
L 147 3053 
L 147 3500 
L 697 3500 
L 697 3744 
Q 697 4328 969 4595 
Q 1241 4863 1831 4863 
L 2375 4863 
z
" transform="scale(0.015625)"/>
     <path id="DejaVuSans-79" d="M 2059 -325 
Q 1816 -950 1584 -1140 
Q 1353 -1331 966 -1331 
L 506 -1331 
L 506 -850 
L 844 -850 
Q 1081 -850 1212 -737 
Q 1344 -625 1503 -206 
L 1606 56 
L 191 3500 
L 800 3500 
L 1894 763 
L 2988 3500 
L 3597 3500 
L 2059 -325 
z
" transform="scale(0.015625)"/>
     <path id="DejaVuSans-2b" d="M 2944 4013 
L 2944 2272 
L 4684 2272 
L 4684 1741 
L 2944 1741 
L 2944 0 
L 2419 0 
L 2419 1741 
L 678 1741 
L 678 2272 
L 2419 2272 
L 2419 4013 
L 2944 4013 
z
" transform="scale(0.015625)"/>
     <path id="DejaVuSans-2c" d="M 750 794 
L 1409 794 
L 1409 256 
L 897 -744 
L 494 -744 
L 750 256 
L 750 794 
z
" transform="scale(0.015625)"/>
     <path id="DejaVuSans-6b" d="M 581 4863 
L 1159 4863 
L 1159 1991 
L 2875 3500 
L 3609 3500 
L 1753 1863 
L 3688 0 
L 2938 0 
L 1159 1709 
L 1159 0 
L 581 0 
L 581 4863 
z
" transform="scale(0.015625)"/>
     <path id="DejaVuSans-3d" d="M 678 2906 
L 4684 2906 
L 4684 2381 
L 678 2381 
L 678 2906 
z
M 678 1631 
L 4684 1631 
L 4684 1100 
L 678 1100 
L 678 1631 
z
" transform="scale(0.015625)"/>
    </defs>
    <use xlink:href="#DejaVuSans-54"/>
    <use xlink:href="#DejaVuSans-69" transform="translate(57.958984 0)"/>
    <use xlink:href="#DejaVuSans-73" transform="translate(85.742188 0)"/>
    <use xlink:href="#DejaVuSans-73" transform="translate(137.841797 0)"/>
    <use xlink:href="#DejaVuSans-75" transform="translate(189.941406 0)"/>
    <use xlink:href="#DejaVuSans-65" transform="translate(253.320312 0)"/>
    <use xlink:href="#DejaVuSans-2d" transform="translate(314.84375 0)"/>
    <use xlink:href="#DejaVuSans-73" transform="translate(350.927734 0)"/>
    <use xlink:href="#DejaVuSans-70" transform="translate(403.027344 0)"/>
    <use xlink:href="#DejaVuSans-65" transform="translate(466.503906 0)"/>
    <use xlink:href="#DejaVuSans-63" transform="translate(528.027344 0)"/>
    <use xlink:href="#DejaVuSans-69" transform="translate(583.007812 0)"/>
    <use xlink:href="#DejaVuSans-66" transform="translate(610.791016 0)"/>
    <use xlink:href="#DejaVuSans-69" transform="translate(645.996094 0)"/>
    <use xlink:href="#DejaVuSans-63" transform="translate(673.779297 0)"/>
    <use xlink:href="#DejaVuSans-69" transform="translate(728.759766 0)"/>
    <use xlink:href="#DejaVuSans-74" transform="translate(756.542969 0)"/>
    <use xlink:href="#DejaVuSans-79" transform="translate(795.751953 0)"/>
    <use xlink:href="#DejaVuSans-20" transform="translate(854.931641 0)"/>
    <use xlink:href="#DejaVuSans-6f" transform="translate(886.71875 0)"/>
    <use xlink:href="#DejaVuSans-66" transform="translate(947.900391 0)"/>
    <use xlink:href="#DejaVuSans-20" transform="translate(983.105469 0)"/>
    <use xlink:href="#DejaVuSans-70" transform="translate(1014.892578 0)"/>
    <use xlink:href="#DejaVuSans-72" transform="translate(1078.369141 0)"/>
    <use xlink:href="#DejaVuSans-6f" transform="translate(1117.232422 0)"/>
    <use xlink:href="#DejaVuSans-62" transform="translate(1178.414062 0)"/>
    <use xlink:href="#DejaVuSans-65" transform="translate(1241.890625 0)"/>
    <use xlink:href="#DejaVuSans-20" transform="translate(1303.414062 0)"/>
    <use xlink:href="#DejaVuSans-6f" transform="translate(1335.201172 0)"/>
    <use xlink:href="#DejaVuSans-75" transform="translate(1396.382812 0)"/>
    <use xlink:href="#DejaVuSans-74" transform="translate(1459.761719 0)"/>
    <use xlink:href="#DejaVuSans-70" transform="translate(1498.970703 0)"/>
    <use xlink:href="#DejaVuSans-75" transform="translate(1562.447266 0)"/>
    <use xlink:href="#DejaVuSans-74" transform="translate(1625.826172 0)"/>
    <use xlink:href="#DejaVuSans-73" transform="translate(1665.035156 0)"/>
    <use xlink:href="#DejaVuSans-20" transform="translate(1717.134766 0)"/>
    <use xlink:href="#DejaVuSans-61" transform="translate(1748.921875 0)"/>
    <use xlink:href="#DejaVuSans-74" transform="translate(1810.201172 0)"/>
    <use xlink:href="#DejaVuSans-20" transform="translate(1849.410156 0)"/>
    <use xlink:href="#DejaVuSans-74" transform="translate(1881.197266 0)"/>
    <use xlink:href="#DejaVuSans-72" transform="translate(1920.40625 0)"/>
    <use xlink:href="#DejaVuSans-75" transform="translate(1961.519531 0)"/>
    <use xlink:href="#DejaVuSans-65" transform="translate(2024.898438 0)"/>
    <use xlink:href="#DejaVuSans-20" transform="translate(2086.421875 0)"/>
    <use xlink:href="#DejaVuSans-73" transform="translate(2118.208984 0)"/>
    <use xlink:href="#DejaVuSans-70" transform="translate(2170.308594 0)"/>
    <use xlink:href="#DejaVuSans-6c" transform="translate(2233.785156 0)"/>
    <use xlink:href="#DejaVuSans-69" transform="translate(2261.568359 0)"/>
    <use xlink:href="#DejaVuSans-63" transform="translate(2289.351562 0)"/>
    <use xlink:href="#DejaVuSans-65" transform="translate(2344.332031 0)"/>
    <use xlink:href="#DejaVuSans-20" transform="translate(2405.855469 0)"/>
    <use xlink:href="#DejaVuSans-73" transform="translate(2437.642578 0)"/>
    <use xlink:href="#DejaVuSans-69" transform="translate(2489.742188 0)"/>
    <use xlink:href="#DejaVuSans-74" transform="translate(2517.525391 0)"/>
    <use xlink:href="#DejaVuSans-65" transform="translate(2556.734375 0)"/>
    <use xlink:href="#DejaVuSans-73" transform="translate(2618.257812 0)"/>
    <use xlink:href="#DejaVuSans-20" transform="translate(2670.357422 0)"/>
    <use xlink:href="#DejaVuSans-28" transform="translate(2702.144531 0)"/>
    <use xlink:href="#DejaVuSans-63" transform="translate(2741.158203 0)"/>
    <use xlink:href="#DejaVuSans-68" transform="translate(2796.138672 0)"/>
    <use xlink:href="#DejaVuSans-72" transform="translate(2859.517578 0)"/>
    <use xlink:href="#DejaVuSans-31" transform="translate(2900.630859 0)"/>
    <use xlink:href="#DejaVuSans-2b" transform="translate(2964.253906 0)"/>
    <use xlink:href="#DejaVuSans-63" transform="translate(3048.042969 0)"/>
    <use xlink:href="#DejaVuSans-68" transform="translate(3103.023438 0)"/>
    <use xlink:href="#DejaVuSans-72" transform="translate(3166.402344 0)"/>
    <use xlink:href="#DejaVuSans-39" transform="translate(3207.515625 0)"/>
    <use xlink:href="#DejaVuSans-2c" transform="translate(3271.138672 0)"/>
    <use xlink:href="#DejaVuSans-20" transform="translate(3302.925781 0)"/>
    <use xlink:href="#DejaVuSans-62" transform="translate(3334.712891 0)"/>
    <use xlink:href="#DejaVuSans-6c" transform="translate(3398.189453 0)"/>
    <use xlink:href="#DejaVuSans-61" transform="translate(3425.972656 0)"/>
    <use xlink:href="#DejaVuSans-63" transform="translate(3487.251953 0)"/>
    <use xlink:href="#DejaVuSans-6b" transform="translate(3542.232422 0)"/>
    <use xlink:href="#DejaVuSans-2d" transform="translate(3600.142578 0)"/>
    <use xlink:href="#DejaVuSans-6f" transform="translate(3638.101562 0)"/>
    <use xlink:href="#DejaVuSans-75" transform="translate(3699.283203 0)"/>
    <use xlink:href="#DejaVuSans-74" transform="translate(3762.662109 0)"/>
    <use xlink:href="#DejaVuSans-6c" transform="translate(3801.871094 0)"/>
    <use xlink:href="#DejaVuSans-69" transform="translate(3829.654297 0)"/>
    <use xlink:href="#DejaVuSans-6e" transform="translate(3857.4375 0)"/>
    <use xlink:href="#DejaVuSans-65" transform="translate(3920.816406 0)"/>
    <use xlink:href="#DejaVuSans-64" transform="translate(3982.339844 0)"/>
    <use xlink:href="#DejaVuSans-20" transform="translate(4045.816406 0)"/>
    <use xlink:href="#DejaVuSans-62" transform="translate(4077.603516 0)"/>
    <use xlink:href="#DejaVuSans-61" transform="translate(4141.080078 0)"/>
    <use xlink:href="#DejaVuSans-72" transform="translate(4202.359375 0)"/>
    <use xlink:href="#DejaVuSans-73" transform="translate(4243.472656 0)"/>
    <use xlink:href="#DejaVuSans-20" transform="translate(4295.572266 0)"/>
    <use xlink:href="#DejaVuSans-3d" transform="translate(4327.359375 0)"/>
    <use xlink:href="#DejaVuSans-20" transform="translate(4411.148438 0)"/>
    <use xlink:href="#DejaVuSans-6d" transform="translate(4442.935547 0)"/>
    <use xlink:href="#DejaVuSans-61" transform="translate(4540.347656 0)"/>
    <use xlink:href="#DejaVuSans-74" transform="translate(4601.626953 0)"/>
    <use xlink:href="#DejaVuSans-63" transform="translate(4640.835938 0)"/>
    <use xlink:href="#DejaVuSans-68" transform="translate(4695.816406 0)"/>
    <use xlink:href="#DejaVuSans-65" transform="translate(4759.195312 0)"/>
    <use xlink:href="#DejaVuSans-64" transform="translate(4820.71875 0)"/>
    <use xlink:href="#DejaVuSans-20" transform="translate(4884.195312 0)"/>
    <use xlink:href="#DejaVuSans-74" transform="translate(4915.982422 0)"/>
    <use xlink:href="#DejaVuSans-69" transform="translate(4955.191406 0)"/>
    <use xlink:href="#DejaVuSans-73" transform="translate(4982.974609 0)"/>
    <use xlink:href="#DejaVuSans-73" transform="translate(5035.074219 0)"/>
    <use xlink:href="#DejaVuSans-75" transform="translate(5087.173828 0)"/>
    <use xlink:href="#DejaVuSans-65" transform="translate(5150.552734 0)"/>
    <use xlink:href="#DejaVuSans-29" transform="translate(5212.076172 0)"/>
   </g>
  </g>
 </g>
 <defs>
  <clipPath id="pc85fa0641b">
   <rect x="50.14375" y="54.6" width="386.476136" height="288.44992"/>
  </clipPath>
  <clipPath id="pd8f914a50d">
   <rect x="512.74375" y="54.6" width="386.476136" height="288.44992"/>
  </clipPath>
 </defs>
</svg>
